<?xml version="1.0" encoding="UTF-8"?><svg xmlns="http://www.w3.org/2000/svg" xmlns:xlink="http://www.w3.org/1999/xlink" viewBox="0 0 232.57 232.57"><defs><style>.cls-1{fill:url(#_åçûìÿííûé_ãðàäèåíò_6-11);}.cls-1,.cls-2,.cls-3,.cls-4,.cls-5,.cls-6,.cls-7,.cls-8,.cls-9,.cls-10,.cls-11,.cls-12,.cls-13,.cls-14,.cls-15,.cls-16,.cls-17,.cls-18,.cls-19,.cls-20{mix-blend-mode:screen;}.cls-1,.cls-2,.cls-3,.cls-5,.cls-6,.cls-7,.cls-8,.cls-9,.cls-10,.cls-11,.cls-12,.cls-13,.cls-14,.cls-15,.cls-16,.cls-18,.cls-19,.cls-20{opacity:.6;}.cls-21{opacity:.4;}.cls-21,.cls-22,.cls-23{mix-blend-mode:multiply;}.cls-24{fill:#f9dc4c;}.cls-25{fill:#f3999c;}.cls-26{fill:#fff;}.cls-27{fill:#c4735b;}.cls-28,.cls-4{fill:#f27053;}.cls-29{fill:#0f823d;}.cls-30{fill:#009bdc;}.cls-31{fill:#751d0e;}.cls-32{fill:#7c2b18;}.cls-33{fill:#49130a;}.cls-34{fill:#ef5350;}.cls-35{fill:#ffb600;}.cls-36{fill:#c63210;}.cls-37{fill:#752912;}.cls-38{fill:#d70a00;}.cls-39{fill:#f6f8f7;}.cls-22{opacity:.2;}.cls-2{fill:url(#_åçûìÿííûé_ãðàäèåíò_6-6);}.cls-40{isolation:isolate;}.cls-3{fill:url(#_åçûìÿííûé_ãðàäèåíò_6-8);}.cls-4,.cls-41,.cls-17{opacity:.3;}.cls-5{fill:url(#_åçûìÿííûé_ãðàäèåíò_6-10);}.cls-42{fill:#e83700;}.cls-6{fill:url(#_åçûìÿííûé_ãðàäèåíò_6);}.cls-7{fill:url(#_åçûìÿííûé_ãðàäèåíò_6-16);}.cls-8{fill:url(#_åçûìÿííûé_ãðàäèåíò_6-2);}.cls-43{opacity:.95;}.cls-9{fill:url(#_åçûìÿííûé_ãðàäèåíò_6-18);}.cls-44{fill:#52efe7;}.cls-45{fill:#ef3030;}.cls-46{fill:#dd6554;}.cls-47{fill:#e82323;}.cls-10{fill:url(#_åçûìÿííûé_ãðàäèåíò_6-12);}.cls-48{fill-rule:evenodd;}.cls-48,.cls-49{fill:#300c07;}.cls-11{fill:url(#_åçûìÿííûé_ãðàäèåíò_6-3);}.cls-50{fill:#994710;}.cls-51{fill:#82b439;}.cls-52{fill:#fac7a8;}.cls-12{fill:url(#_åçûìÿííûé_ãðàäèåíò_6-15);}.cls-13{fill:url(#_åçûìÿííûé_ãðàäèåíò_6-4);}.cls-53{fill:#02a4a8;}.cls-54{fill:#682110;}.cls-55{fill:#351601;}.cls-56{fill:#eb1e0b;}.cls-14{fill:url(#_åçûìÿííûé_ãðàäèåíò_6-17);}.cls-15{fill:url(#_åçûìÿííûé_ãðàäèåíò_6-9);}.cls-57{fill:#681d0c;}.cls-58{fill:#f9951e;}.cls-59{fill:#6d1c0c;}.cls-60{fill:#c0fffc;}.cls-61{fill:#03b99b;}.cls-16{fill:url(#_åçûìÿííûé_ãðàäèåíò_6-13);}.cls-62{fill:#b55649;}.cls-63{fill:#706f6f;}.cls-64{fill:#912d1b;}.cls-65{fill:#8067a0;}.cls-66{fill:#e8002d;}.cls-67{fill:#352a27;}.cls-68{fill:#e3986a;}.cls-69{fill:#ff8a8a;}.cls-70{fill:#ef8f6f;}.cls-71{fill:#a0442b;}.cls-72{fill:#701608;}.cls-73{opacity:.28;}.cls-74{fill:#bf3636;}.cls-75{fill:#461d14;}.cls-23{fill:#e6e6e6;}.cls-76{fill:#7c2604;}.cls-77{fill:#f9feff;}.cls-78{fill:#7e331c;}.cls-79{fill:#fcfeff;}.cls-18{fill:url(#_åçûìÿííûé_ãðàäèåíò_6-5);}.cls-80{fill:#05d65a;}.cls-81{fill:#fc4724;}.cls-82{fill:#fefffe;}.cls-83{fill:#cc6a1f;}.cls-84{fill:#c97256;}.cls-19{fill:url(#_åçûìÿííûé_ãðàäèåíò_6-7);}.cls-85{fill:#ad3c23;}.cls-86{fill:#ff321f;}.cls-87{fill:#ff9318;}.cls-20{fill:url(#_åçûìÿííûé_ãðàäèåíò_6-14);}.cls-88{fill:#ba2e08;}.cls-89{fill:#8a1812;}.cls-90{fill:#5b0000;}</style><radialGradient id="_åçûìÿííûé_ãðàäèåíò_6" cx="-11498.18" cy="-7307.41" fx="-11498.18" fy="-7307.41" r="9.79" gradientTransform="translate(11896.99 6845.67) rotate(-2.33)" gradientUnits="userSpaceOnUse"><stop offset="0" stop-color="#ecff73"/><stop offset=".14" stop-color="#d0e165"/><stop offset=".44" stop-color="#8b9643"/><stop offset=".89" stop-color="#1d1f0e"/><stop offset="1" stop-color="#000"/></radialGradient><radialGradient id="_åçûìÿííûé_ãðàäèåíò_6-2" cx="-14355.88" cy="-7057.6" fx="-14355.88" fy="-7057.6" r="9.79" gradientTransform="translate(11682.84 11099.12) rotate(17.67)" xlink:href="#_åçûìÿííûé_ãðàäèåíò_6"/><radialGradient id="_åçûìÿííûé_ãðàäèåíò_6-3" cx="-16955.15" cy="-5846.1" fx="-16955.15" fy="-5846.1" r="9.79" gradientTransform="translate(10027.96 15021.67) rotate(37.67)" xlink:href="#_åçûìÿííûé_ãðàäèåíò_6"/><radialGradient id="_åçûìÿííûé_ãðàäèåíò_6-4" cx="-18984.11" cy="-3817.87" fx="-18984.11" fy="-3817.87" r="9.79" gradientTransform="translate(7129.85 18141.84) rotate(57.67)" xlink:href="#_åçûìÿííûé_ãðàäèåíò_6"/><radialGradient id="_åçûìÿííûé_ãðàäèåíò_6-5" cx="-20196.56" cy="-1218.94" fx="-20196.56" fy="-1218.94" r="9.79" gradientTransform="translate(3340.75 20083.01) rotate(77.67)" xlink:href="#_åçûìÿííûé_ãðàäèåíò_6"/><radialGradient id="_åçûìÿííûé_ãðàäèåíò_6-6" cx="-20447.07" cy="1638.34" fx="-20447.07" fy="1638.34" r="9.79" gradientTransform="translate(-884.24 20611.08) rotate(97.67)" xlink:href="#_åçûìÿííûé_ãðàäèåíò_6"/><radialGradient id="_åçûìÿííûé_ãðàäèåíò_6-7" cx="-19705.03" cy="4409.32" fx="-19705.03" fy="4409.32" r="9.79" gradientTransform="translate(-5035.34 19662.07) rotate(117.67)" xlink:href="#_åçûìÿííûé_ãðàäèåíò_6"/><radialGradient id="_åçûìÿííûé_ãðàäèåíò_6-8" cx="-18060.47" cy="6758.93" fx="-18060.47" fy="6758.93" r="9.79" gradientTransform="translate(-8611.13 17351.06) rotate(137.66)" xlink:href="#_åçûìÿííûé_ãðàäèåíò_6"/><radialGradient id="_åçûìÿííûé_ãðàäèåíò_6-9" cx="-15710.37" cy="8404.62" fx="-15710.37" fy="8404.62" r="9.79" gradientTransform="translate(-11181.45 13955.53) rotate(157.67)" xlink:href="#_åçûìÿííûé_ãðàäèåíò_6"/><radialGradient id="_åçûìÿííûé_ãðàäèåíò_6-10" cx="-12940.2" cy="9146.82" fx="-12940.2" fy="9146.82" r="9.79" gradientTransform="translate(-12435.5 9886.55) rotate(177.67)" xlink:href="#_åçûìÿííûé_ãðàäèåíò_6"/><radialGradient id="_åçûìÿííûé_ãðàäèåíò_6-11" cx="-10082.05" cy="8897.32" fx="-10082.05" fy="8897.32" r="9.79" gradientTransform="translate(-12221.34 5633.11) rotate(-162.33)" xlink:href="#_åçûìÿííûé_ãðàäèåíò_6"/><radialGradient id="_åçûìÿííûé_ãðàäèåíò_6-12" cx="-7483.24" cy="7685.52" fx="-7483.24" fy="7685.52" r="9.79" gradientTransform="translate(-10566.46 1710.56) rotate(-142.33)" xlink:href="#_åçûìÿííûé_ãðàäèåíò_6"/><radialGradient id="_åçûìÿííûé_ãðàäèåíò_6-13" cx="-5454.09" cy="5657.82" fx="-5454.09" fy="5657.82" r="9.79" gradientTransform="translate(-7668.36 -1409.61) rotate(-122.33)" xlink:href="#_åçûìÿííûé_ãðàäèåíò_6"/><radialGradient id="_åçûìÿííûé_ãðàäèåíò_6-14" cx="-4241.99" cy="3058.65" fx="-4241.99" fy="3058.65" r="9.79" gradientTransform="translate(-3879.26 -3350.78) rotate(-102.33)" xlink:href="#_åçûìÿííûé_ãðàäèåíò_6"/><radialGradient id="_åçûìÿííûé_ãðàäèåíò_6-15" cx="-3991.56" cy="201.35" fx="-3991.56" fy="201.35" r="9.79" gradientTransform="translate(345.74 -3878.86) rotate(-82.33)" xlink:href="#_åçûìÿííûé_ãðàäèåíò_6"/><radialGradient id="_åçûìÿííûé_ãðàäèåíò_6-16" cx="-4733.47" cy="-2569.51" fx="-4733.47" fy="-2569.51" r="9.79" gradientTransform="translate(4496.83 -2929.85) rotate(-62.33)" xlink:href="#_åçûìÿííûé_ãðàäèåíò_6"/><radialGradient id="_åçûìÿííûé_ãðàäèåíò_6-17" cx="-6378.27" cy="-4919.23" fx="-6378.27" fy="-4919.23" r="9.79" gradientTransform="translate(8072.63 -618.83) rotate(-42.34)" xlink:href="#_åçûìÿííûé_ãðàäèåíò_6"/><radialGradient id="_åçûìÿííûé_ãðàäèåíò_6-18" cx="-8727.91" cy="-6564.86" fx="-8727.91" fy="-6564.86" r="9.79" gradientTransform="translate(10642.95 2776.7) rotate(-22.33)" xlink:href="#_åçûìÿííûé_ãðàäèåíò_6"/></defs><g class="cls-40"><g id="Layer_2"><g id="Capa_2"><g><circle class="cls-26" cx="116.28" cy="116.28" r="116.25"/><g><circle class="cls-38" cx="116.28" cy="116.28" r="104.95"/><circle class="cls-39" cx="116.28" cy="116.28" r="95.13"/><g><g><path class="cls-30" d="M48.85,49.17L116.13,116.41l-.03-95.27c-24.3,.05-48.58,9.34-67.11,27.88-.05,.05-.1,.1-.15,.15Z"/><path class="cls-81" d="M49.04,183.55c18.54,18.53,42.83,27.81,67.12,27.84l-.03-94.97L49.04,183.55Z"/><path class="cls-65" d="M48.85,49.17c-18.51,18.6-27.74,42.94-27.69,67.27l94.97-.03L48.85,49.17Z"/><path class="cls-87" d="M116.17,211.38c24.33,.03,48.66-9.22,67.25-27.74L116.13,116.41l.03,94.97Z"/><path class="cls-66" d="M21.16,116.44c.05,24.3,9.34,48.58,27.88,67.11L116.13,116.41l-94.97,.03Z"/><path class="cls-61" d="M183.52,48.98c-18.62-18.61-43.03-27.88-67.42-27.84l.03,95.27L183.52,48.98Z"/><path class="cls-51" d="M183.42,183.65s.1-.1,.15-.15c18.53-18.54,27.81-42.83,27.84-67.12l-95.27,.03,67.28,67.24Z"/><path class="cls-80" d="M211.4,116.38c.03-24.39-9.26-48.8-27.88-67.4L116.13,116.41l95.27-.03Z"/></g><path class="cls-26" d="M51.98,85.84c-.27,.65-.18,1.39,.23,1.95,.22,.3,.51,.53,.84,.67,.04,.02,.08,.03,.12,.05-.01,.12-.04,.26-.08,.42-.16,.33-.31,.65-.45,1-.94,2.28-1.37,4.47-1.34,6.47-2.15,.68-3.5,2.98-3.05,5.39,.11,.6,.33,1.15,.63,1.65-.07,.56,.1,1.14,.51,1.58,.35,.39,.83,.71,1.38,.94,1.04,.43,2.17,.46,3.17,.11,.21,.32,.48,.73,.57,.96-.29,1.08,.26,2.24,1.4,2.71h0c.84,.31,1.76,.08,2.37-.53,.12,.09,.26,.16,.4,.22,.31,.13,.66,.19,.99,.17,.85-.05,1.58-.57,1.92-1.34,.16,.09,.31,.18,.49,.25,.52,.22,1.08,.36,1.67,.44,2.66,.35,5.4-1.06,6.52-3.21,2.41-1.01,5.04-3.63,6.1-6.28,.71-1.77,.87-4.07,.66-6.11,.15-.2,.29-.37,.39-.51h0l.2-.26,.03-.04,.03-.03c.09-.12,.16-.25,.23-.39,.25-.55,.31-1.21,.07-1.85-.18-.48-.51-.94-1.04-1.33-.04-.03-.09-.05-.13-.08-.01-1.92-.94-3.96-2.58-5.22-.46-.36-.96-.64-1.46-.85-.43-.18-.87-.28-1.3-.35-.05-.3-.15-.6-.32-.87-.25-.39-.6-.69-1.03-.87-.15-.06-.31-.11-.48-.14,0-.5-.16-1-.48-1.41-.24-.3-.55-.54-.9-.69-.75-.31-1.61-.2-2.24,.3-.13,.1-.42,.14-.89,.19-.09,0-.19,.02-.29,.03-.22-.32-.49-.59-.81-.79-.09-.06-.19-.11-.29-.15-.22-.09-.46-.14-.69-.15-.21-.14-.44-.26-.69-.36-.99-.41-2.11-.46-3-.13-.36,.13-.65,.36-.87,.64-.28,.14-.56,.32-.82,.52-1.03,.8-1.69,2.03-1.82,3.36-.02,.25-.01,.49,0,.74-.09,.08-.18,.16-.25,.26-1.45,.17-2.85,1.07-3.62,2.92Z"/><path class="cls-26" d="M79.36,166.62c-.18,.56-.19,1.13-.07,1.67-.23,.22-.44,.46-.62,.73-.68,1.02-.93,2.32-.66,3.58,.14,.68,.45,1.3,.89,1.83-.14,1.18,.42,2.34,1.45,2.98v.04c.24,1.64,1.48,3.16,3.19,3.87,.97,.4,1.99,.52,2.95,.32,.26-.05,.52-.13,.76-.23,.24,.16,.5,.3,.77,.41,.11,.05,.22,.09,.34,.12,.4,.13,.82,.2,1.25,.22,.05,.06,.11,.11,.17,.17-.26,1.69,.12,3.42,1.14,4.86,.22,.32,.52,.55,.86,.69,.59,.25,1.29,.2,1.87-.17,1.53-1,2.65-2.16,3.38-3.43,.16,.12,.32,.25,.48,.37,.83,.63,1.78,1.35,2.71,2.21,.17,.16,.37,.28,.58,.37,.35,.15,.73,.19,1.12,.12,.61-.11,1.14-.49,1.43-1.04,1.34-2.57,1.09-4.59,.65-5.82-.15-.41-.35-.81-.59-1.18,.44-.66,.73-1.42,.8-2.26,0-.06,0-.13,.01-.2,.64-.55,1.04-1.28,1.12-2.1,.07-.7-.11-1.38-.5-1.98,.13-.32,.2-.68,.22-1.05,0-.25-.02-.49-.08-.73,.77-.94,1.16-2.25,1.05-3.59-.16-1.85-1.39-3.57-3.06-4.32-.89-2.19-3.44-4.33-5.64-5.25-.25-.1-.5-.2-.75-.27l-.59,1.91,.47-1.95c-2.67-.86-6.38-.46-8.43,.83-1.6-.3-3.6,.16-4.96,1.76-.97,1.15-1.4,2.64-1.16,3.96-.16,.14-.3,.3-.43,.48-.97,.29-1.78,1.03-2.11,2.07Z"/><path class="cls-26" d="M175.33,126.87c-.28-1.22-1.17-2.28-2.53-2.85-.65-.27-1.37-.41-2.09-.41-1.87,0-3.64,1.06-4.57,2.54-.05,0-.12,0-.17,.01-2.59,.38-5.94,3.35-7.17,6.35l-.06,.13c-1.27,2.99-1.03,7.46,.52,9.57,.04,.05,.09,.1,.13,.15-.37,1.61,0,3.58,1.4,5,.51,.51,1.12,.93,1.77,1.2,1.34,.56,2.71,.45,3.77-.19,.81,.55,1.76,1.03,2.58,1.39,0,.62,.27,1.25,.75,1.64,.15,.12,.32,.22,.49,.3l.22,.09s.12,.05,.23,.08l.17,.08h.02l-.05,.12s-.1,.28-.12,.31c-.05,.13-.08,.26-.1,.36-.15,.74,.16,1.56,.75,2.03,.14,.11,.3,.21,.47,.28l.19,.08c.05,.02,.14,.05,.2,.07l.14,.06c.22,.09,.5,.15,.73,.16,.18,0,.36-.01,.53-.05,.05,.06,.11,.12,.18,.19,.07,.07,.14,.14,.21,.19l.22,.19c.17,.15,.38,.28,.58,.36,.11,.04,.22,.08,.33,.11,.04,0,.08,.02,.11,.02,.58,.1,1.2-.07,1.65-.45,.21-.17,.38-.39,.53-.66,.03-.06,.07-.13,.09-.19l.59-1.39c.06-.11,.12-.23,.17-.36,0-.02,.01-.05,.02-.07,.3-.07,.57-.2,.78-.39,.21-.17,.43-.45,.56-.68,.03-.06,.06-.11,.08-.17l.42-.97c.05-.09,.1-.19,.14-.29,.11-.27,.17-.54,.16-.74,0-.13,0-.26-.02-.38,.63-.69,.94-1.63,.88-2.59,.08-.11,.15-.22,.21-.34,.49-.16,.94-.44,1.3-.85,.58-.65,.98-1.56,1.05-2.54,.04-.03,.08-.06,.12-.09,1.16-.98,1.52-2.66,.95-4,.26-.63,.35-1.29,.3-1.94,.16-.2,.29-.43,.4-.67,.56-1.27,.23-2.7-.74-3.54,.02-.31-.01-.65-.12-1.01-.12-.42-.36-.8-.69-1.1-.07-.33-.2-.66-.38-.96-.3-.51-.75-.9-1.3-1.12-.16-.07-.32-.12-.48-.15-.16-.11-.34-.21-.53-.29-.56-.23-1.15-.26-1.69-.13-.29-.13-.58-.26-.88-.39-.91-.38-2.2-.85-3.41-1.1Z"/><path class="cls-26" d="M125.53,62.08c-.22,.11-.45,.22-.65,.37-1.16,.85-1.87,2.39-1.87,4.01,0,1.96,1.14,3.83,2.8,4.73,.73,3.11,2.82,5.52,6.2,6.93,3.33,1.38,6.47,1.14,9.17-.52,1.82,.56,3.96,.06,5.35-1.33,1.15-1.14,1.74-2.73,1.53-4.15-.04-.26-.11-.49-.19-.73,1.1-.91,1.77-2.71,2.13-4.14,.31-.16,.6-.36,.86-.6,1.6-1.53,1.54-4.24-.12-6.26,.07-.23,.11-.46,.13-.69,.12-1.53-.82-2.94-2.38-3.59-.08-.03-.16-.07-.25-.09-.22-1.74-1.41-3.19-3.29-3.97-1.36-.57-3.02-.74-4.67-.49-.4,.06-.79,.15-1.18,.25-.11-.26-.25-.51-.43-.75-.36-.49-.83-.86-1.37-1.09-1.31-.55-2.85-.14-3.66,.95-.17,.23-.3,.48-.38,.74-1.15-.04-2.28,.24-3.29,.82-3.05,1.75-4.57,4.72-3.77,7.13-.31,.84-.53,1.66-.67,2.46Z"/><g><g><path class="cls-52" d="M73.01,85.23c1.79,1.37,2.23,3.86,1.41,5.25-.82,1.39-2.59,.97-4.42-.1-1.83-1.08-2.65-3.08-1.83-4.46,1.12-1.89,3.15-1.97,4.84-.68Z"/><path class="cls-68" d="M72.57,87.21c.8,.47,1.11,1.43,.7,2.14-.42,.71-1.4,.9-2.21,.42-.8-.47-1.11-1.43-.7-2.14,.42-.71,1.4-.9,2.21-.42Z"/></g><g><path class="cls-52" d="M64,106.96c2.24,.3,4.31-1.16,4.71-2.71,.4-1.56-1.14-2.52-3.2-3.05-2.05-.53-4.05,.3-4.45,1.86-.54,2.13,.84,3.62,2.94,3.9Z"/><path class="cls-68" d="M65.1,105.25c.9,.23,1.8-.22,2-1.02,.21-.79-.36-1.63-1.26-1.86-.9-.23-1.8,.22-2,1.02-.21,.79,.36,1.63,1.26,1.86Z"/></g><path class="cls-67" d="M66.39,83.81c6.48,2.61,7.64,7.98,5.26,13.64-2.38,5.67-7.21,9.05-13.62,6.26-4.73-2.06-5.97-7.07-3.53-13.03,2.32-5.66,7.02-8.83,11.89-6.87Z"/><path class="cls-52" d="M64.35,85.28c3.62,.32,9.11,3.62,9.95,5.27,.89,1.76,1.19,5.73,.21,8.15-1.01,2.52-3.97,5.15-5.86,5.44-2.24,.34-7.75-.84-10.24-2.8-3.01-2.36-2.61-5.99-.99-9.93,1.52-3.68,3.73-6.42,6.93-6.14Z"/><path class="cls-67" d="M58.85,84.65c.42,.3-.92,4.5-1.76,6.91-.77,2.22-1.9,5.35-.75,6.91,.12-.47,1.47-1.86,1.81-2.17,.31-.29,3.43-2.14,3.97-6.67-.4,.85-1,3.53-3.43,5.38,.45-.55,1.01-1.39,1.55-2.29,2.28-3.83,.54-7.33-1.39-8.07Z"/><g><path class="cls-47" d="M67.24,80.34c-.58,.45-1.23,.52-1.91,.6-1.12,.12-2.28,.25-3.1,2.1-.06,.12,0,.27,.12,.32,.09,.04,.18,0,.25-.06,.09,.09,.24,.11,.33,.02,1.25-1.07,2.3-.71,3.4-.33,.96,.33,1.96,.67,3.03,0,.05-.03,.08-.08,.1-.13,.02-.07,.02-.14-.03-.21-.07-.11-.22-.15-.34-.08-.87,.56-1.68,.28-2.61-.04-1.05-.36-2.23-.75-3.55,.19,.67-1.1,1.5-1.19,2.44-1.29,.72-.08,1.46-.16,2.15-.7,.04-.03,.07-.07,.08-.11,.03-.08,.01-.16-.04-.23-.08-.11-.24-.13-.34-.04Z"/><path class="cls-67" d="M62.68,80.41c-.54-1.16-1.96-1.39-2.62-1.14,1.64-.06,2.15,.9,2.24,1.1-.86-.98-2.25-1.13-3.4-.24-1.16,.9-1.42,2.73-.55,3.71,.86,.98,2.45,1,3.54,.04,.37-.32,.74-.68,.9-1.09,.71-1.04,.82-2.51,.18-2.91,.14,.38,.14,1.17-.06,1.5-.01-.32-.07-.66-.22-.98Z"/><path class="cls-47" d="M59.14,84.31c.05-.11,.16-.18,.28-.18,1.16,0,2.59-.66,2.94-1.21,.09-.14,.28-.19,.42-.09,.14,.09,.18,.28,.09,.42-.5,.79-2.15,1.5-3.46,1.5-.17,0-.3-.14-.3-.31,0-.04,0-.09,.03-.12Z"/></g><path class="cls-67" d="M57.14,84.17c.58,.4,.69,.8,.69,1.39-1.11-1-3.12-1.06-4.01,1.05,1.36-.12,1.85,1.48,.81,4.09-1.08,2.71-2.33,6.31,.1,8.33,.11-.52,1.48-2.42,1.86-2.77,.34-.32,3.83-3.15,4.42-7.58-.41,.94-1.31,3.83-4.34,5.82,.49-.62,1.09-1.56,1.65-2.56,2.41-4.28,2.26-7.96-1.18-7.75Z"/><g><path class="cls-47" d="M55.13,101.43v-.02s-.07,0-.09-.01c-.03,0-.05-.03-.08-.02h-.02s-.06,.04-.09,.06c-.03,.02-.06,.03-.08,.05h-.02c-.69,1.14,.05,2.28,.77,3.38,.62,.93,1.2,1.82,.91,2.64v.03c-.06,.13,0,.28,.14,.33,.13,.05,.28-.02,.33-.15v-.04c.38-1.06-.3-2.09-.96-3.09-.44-.67-.86-1.31-.94-1.92,.44,.82,1.26,1.41,2.07,1.99,1.09,.78,2.11,1.51,2.18,2.7,0,.14,.13,.25,.27,.24,.11,0,.2-.08,.23-.17,.01-.03,.02-.07,.01-.1-.08-1.44-1.26-2.28-2.4-3.09-1.06-.76-2.07-1.48-2.16-2.62v-.02s-.04-.05-.05-.08c-.02-.03-.03-.06-.06-.08Z"/><path class="cls-67" d="M52.16,98.21c1.36-.26,2.69,.76,2.98,2.27,.29,1.51-.58,2.94-1.94,3.2-1.36,.26-2.69-.76-2.98-2.27-.29-1.51,.58-2.94,1.94-3.2Z"/><path class="cls-67" d="M54.81,101.98c.1,.36-.21,1.32-.93,1.89-1.06,.83-2.51,.36-3.01-.19,2.21,.98,3.52-1.05,3.94-1.69Z"/></g><path class="cls-47" d="M53.19,98.24s.03-.08,.06-.12c.11-.14,.31-.16,.45-.05,1.1,.87,1.85,2.63,1.74,3.57-.02,.17-.18,.3-.35,.28-.18-.02-.3-.18-.28-.35,.07-.67-.53-2.23-1.5-2.99-.1-.08-.14-.21-.11-.33Z"/><path class="cls-90" d="M72.13,95.82c.28,.16-.15,.45-.42,.92-.27,.47-.27,.99-.55,.83-.28-.16-.29-.67-.02-1.14,.27-.47,.71-.77,.99-.61Z"/><g><path class="cls-26" d="M75.76,90.55c-.43-.32-.73-.2-.83-.06-.01,.02-3.39,4.97-3.4,4.99-.06,.08,.13,.45,.13,.45l-.68,.94,.02,.54,.94-1.28s.4,.06,.45-.02c0-.01,3.68-4.76,3.69-4.77,.1-.13,.12-.46-.31-.77Z"/><path class="cls-53" d="M75.76,90.55c-.43-.32-.73-.2-.83-.06,0,0-.08,.12-.21,.3l1.13,.82c.14-.18,.22-.29,.22-.29,.1-.13,.12-.46-.31-.77Z"/><rect class="cls-45" x="73.08" y="92.73" width=".45" height="2.45" transform="translate(69.62 -25.15) rotate(36.19)"/></g><path class="cls-25" d="M66.94,103.71c.39,.19,.97-.19,1.3-.86,.33-.67,.28-1.37-.11-1.56-.39-.19-.97,.19-1.3,.86-.33,.67-.28,1.37,.11,1.56Z"/><path class="cls-25" d="M71.89,92.35c.41,.14,.94-.33,1.17-1.03,.23-.71,.09-1.39-.32-1.53-.41-.14-.94,.33-1.17,1.03-.23,.71-.09,1.39,.32,1.53Z"/><path class="cls-84" d="M69.53,95.88s-.07,.07-.12,.06c-.35-.08-.68,.09-.82,.44-.15,.35-.04,.71,.27,.89,.05,.03,.07,.09,.04,.14-.03,.05-.09,.07-.14,.04-.39-.23-.54-.7-.35-1.15,.18-.44,.61-.67,1.06-.56,.06,.01,.09,.07,.08,.12v.02Z"/><path class="cls-67" d="M65.74,87.87c.04-.07,.04-.16,0-.24-.06-.15-.23-.22-.38-.16-1.09,.44-1.98,1.75-2.12,3.12-.02,.16,.1,.3,.26,.32,.16,.02,.3-.1,.32-.26,.12-1.15,.87-2.28,1.75-2.64,.07-.03,.12-.08,.15-.14Z"/><path class="cls-67" d="M60.47,100.58c-.03,.08-.08,.14-.16,.17-.15,.06-.32,0-.38-.15-.46-1.08-.16-2.64,.71-3.7,.1-.12,.29-.14,.41-.04,.13,.1,.14,.29,.04,.41-.73,.89-1,2.23-.63,3.1,.03,.07,.03,.14,0,.21Z"/><g><path class="cls-79" d="M67.58,98.02s-.28,1.85-1.41,2.94c-.92,.88-2.45,1.06-2.83,.65-.38-.4,.01-1.97,.99-2.7,1.38-1.04,3.26-.89,3.26-.89Z"/><path class="cls-75" d="M63.78,99.59s0-.04,0-.05c.17-.24,.37-.46,.61-.64,.44-.33,.93-.55,1.41-.7,.45,.21,.78,.64,.82,1.17,.06,.78-.52,1.47-1.31,1.53-.78,.06-1.47-.52-1.53-1.31Z"/><path class="cls-79" d="M65.26,98.45c.19-.02,.36,.13,.37,.32,.01,.19-.13,.36-.32,.37-.19,.01-.36-.13-.37-.32-.02-.19,.13-.36,.32-.37Z"/><path class="cls-32" d="M64.75,101.72c-.48,.1-1.21,.04-1.36-.16-.09-.11-.14-.32-.12-.59,.05-.63,.45-1.51,1.09-2,.48-.36,1.09-.65,1.79-.84-.58,.05-1.28,.25-1.76,.6-1.49,1.07-1.52,2.83-1.39,2.97,.23,.24,1.14,.28,1.75,.03Z"/></g><g><path class="cls-79" d="M69.07,94.4s1.1-1.51,1.06-3.08c-.04-1.27-.99-2.48-1.56-2.45-.55,.02-1.37,1.41-1.19,2.62,.25,1.71,1.69,2.92,1.69,2.92Z"/><path class="cls-75" d="M67.47,90.61s-.02,.03-.04,.04c-.05,.29-.06,.59-.02,.88,.08,.55,.27,1.05,.51,1.49,.47,.17,1.01,.09,1.41-.26,.59-.51,.66-1.41,.15-2.01-.51-.59-1.41-.66-2.01-.15Z"/><path class="cls-79" d="M67.72,92.46c.13,.15,.34,.16,.49,.04,.14-.13,.16-.34,.04-.49-.13-.15-.34-.16-.49-.04-.14,.13-.16,.34-.04,.49Z"/><path class="cls-32" d="M69.65,89.78c-.27-.41-.83-.87-1.09-.84-.14,.02-.32,.13-.5,.34-.4,.48-.75,1.39-.63,2.19,.09,.6,.31,1.23,.69,1.86-.38-.44-.74-1.07-.84-1.66-.31-1.81,.91-3.08,1.1-3.09,.33-.01,1.01,.6,1.27,1.21Z"/></g><g><path class="cls-34" d="M64.77,93.39c.18,.08,.27,.29,.19,.47s-.29,.27-.47,.19-.27-.29-.19-.47,.29-.27,.47-.19Z"/><path class="cls-34" d="M70.25,101.7c.09,.04,.13,.14,.09,.23s-.14,.13-.23,.09-.13-.14-.09-.23,.14-.13,.23-.09Z"/><path class="cls-34" d="M59.29,97.41c.09,.04,.13,.14,.09,.23s-.14,.13-.23,.09-.13-.14-.09-.23,.14-.13,.23-.09Z"/><path class="cls-34" d="M70.54,99.35c.12,.05,.18,.19,.13,.31s-.19,.18-.31,.13-.18-.19-.13-.31,.19-.18,.31-.13Z"/><path class="cls-34" d="M72.66,99.51c.14,.06,.21,.22,.15,.36s-.22,.21-.36,.15-.21-.22-.15-.36,.22-.21,.36-.15Z"/><path class="cls-34" d="M61.38,98.84c.14,.06,.21,.22,.15,.36s-.22,.21-.36,.15-.21-.22-.15-.36,.22-.21,.36-.15Z"/><path class="cls-34" d="M63.27,87.41c.13,.05,.19,.2,.13,.33s-.2,.19-.33,.13-.19-.2-.13-.33,.2-.19,.33-.13Z"/></g></g><g><path class="cls-26" d="M80.56,64.18c-.08,.22-.14,.45-.18,.68-.27,1.5,.19,3.09,1.28,4.47,.7,.88,1.63,1.58,2.68,2.02,1.49,.62,3.11,.67,4.45,.19,2.12,.73,5.2,1.13,8.85-.4,3.41-1.43,5.55-3.98,6.43-6.22,2.22-1.13,3.66-3.98,3.25-6.72-.31-2.09-1.46-3.69-3.15-4.39h-.02c-.33-1.17-.8-2.32-1.43-3.43-.51-.89-1.03-1.67-1.7-2.37,.09-.34,.14-.7,.13-1.08-.02-.93-.38-2.29-2.02-3.49-.13-.1-.27-.17-.41-.23-.68-.28-1.48-.17-2.07,.32-.4,.34-.64,.82-.69,1.32-.33,.15-.78,.31-1.06,.36-2.47-.24-4.85,.25-8.16,1.66-6.37,2.71-9.74,8.43-8,13.61,.45,1.33,1.07,2.56,1.81,3.69Z"/><g><path class="cls-52" d="M83.23,68.09c1.42,1.8,3.97,2.21,5.37,1.36,1.4-.85,.95-2.65-.17-4.5-1.13-1.85-3.18-2.66-4.57-1.8-1.91,1.17-1.96,3.24-.62,4.94Z"/><path class="cls-68" d="M85.21,67.75c.49,.81,1.47,1.11,2.19,.68,.71-.43,.89-1.44,.4-2.25-.49-.81-1.47-1.11-2.19-.68-.71,.43-.89,1.44-.4,2.25Z"/><path class="cls-52" d="M105.35,58.51c.34,2.27-1.1,4.41-2.68,4.84-1.58,.44-2.58-1.12-3.16-3.2-.58-2.08,.24-4.13,1.82-4.57,2.16-.59,3.7,.79,4.02,2.92Z"/><path class="cls-68" d="M103.63,59.77c.25,.91-.19,1.83-1,2.06-.81,.22-1.66-.34-1.92-1.25-.25-.91,.19-1.83,1-2.06,.81-.22,1.66,.34,1.92,1.25Z"/><path class="cls-89" d="M100.98,51.38c3.88,6.81,.87,13.75-4.98,16.28-5.85,2.53-12.92-.59-15.35-7.81-1.35-4.01,1.28-8.75,6.88-11.13,2.93-1.25,5.09-1.74,7.33-1.49,.52,.06,3.75-.86,3.09-2.16,1.98,1.45,1.03,3.02,.51,3.44,1.07,.68,1.75,1.51,2.52,2.87Z"/><path class="cls-52" d="M82.13,58.31c1.48,3.86,4.5,10.07,6.23,10.91,1.83,.89,4.85,1.62,8.5,.09,3.35-1.41,5.35-4.17,5.65-6.13,.35-2.32-1.89-8.51-3.38-11.5-1.76-3.52-6.26-2.59-10.35-.85-3.83,1.63-7.83,4.4-6.65,7.48Z"/><path class="cls-89" d="M82.32,53.83c1.14-1.46,3.76-3.11,6.25-4.23,2.71-1.22,5.68-2.1,7.6-1.81,1.27,.2,4.57,4.45,3.92,4.27-.74-.21-1.79-.22-2.98-.08-.36-.47-1.67-1.46-1.89-1.57,.18,.25,.7,1.2,.97,1.7-1.45,.24-3.05,.67-4.55,1.22-.21-.57-.81-1.17-.82-1.21-.1,.24-.09,1.17-.09,1.57-.22,.09-.44,.19-.65,.28-1.96,.88-3.36,1.66-4.42,2.41-.69-1.75-.92-2.29-.85-2.18-.05,.46,.14,1.63,.48,2.45-.39,.29-.73,.58-1.03,.87-.26-.48-.72-1.24-.8-1.37-.11,.16,.08,1.4,.22,1.97-.48,.54-.88,1.09-1.28,1.69-.44,.65-.99-4.81-.06-5.99Z"/><g><path class="cls-25" d="M101.12,60.06c.22,.41-.17,1.04-.86,1.42-.7,.38-1.44,.35-1.66-.05-.22-.41,.17-1.04,.86-1.42,.7-.38,1.44-.35,1.66,.05Z"/><path class="cls-25" d="M89.71,65.45c.16,.43-.31,1.01-1.05,1.28-.74,.27-1.47,.14-1.63-.29-.16-.43,.31-1.01,1.05-1.28,.74-.27,1.47-.14,1.63,.29Z"/><path class="cls-84" d="M94.18,61.94s-.1,0-.13-.04c-.2-.3-.55-.4-.9-.25-.35,.15-.52,.48-.43,.82,.01,.05-.02,.11-.07,.13-.05,.02-.11-.02-.13-.07-.12-.44,.1-.88,.54-1.07,.44-.19,.9-.06,1.15,.33,.03,.05,.02,.11-.03,.14h-.02Z"/><path class="cls-64" d="M85.16,59.32c-.08,0-.16-.03-.22-.09-.11-.12-.11-.3,0-.41,.85-.81,2.41-1.08,3.71-.64,.15,.05,.24,.22,.18,.37-.05,.15-.22,.24-.37,.18-1.09-.37-2.43-.15-3.12,.51-.05,.05-.12,.08-.19,.08Z"/><path class="cls-64" d="M97.25,54.35c.06-.05,.09-.13,.09-.22,0-.16-.14-.29-.3-.29-1.17,.02-2.47,.93-3.09,2.15-.07,.14-.01,.32,.13,.39,.14,.07,.32,.01,.39-.13,.52-1.03,1.62-1.82,2.58-1.83,.07,0,.14-.03,.19-.08Z"/><g><path class="cls-79" d="M91.16,62.68s-2.43,2.2-4.19,1.2c-2.15-1.22-.79-3.58,.65-3.89,1.33-.29,2.91,.26,3.54,2.7Z"/><path class="cls-78" d="M85.7,61.65c.22-.9,.84-1.43,1.64-1.71,.82-.28,1.87-.09,2.35,.39-.72-.45-1.55-.36-2.05-.25-.79,.17-1.59,.93-1.72,1.77-.11,.75,.31,1.61,1.1,2.05-.78-.19-1.56-1.32-1.33-2.26Z"/><path class="cls-54" d="M89.58,61.11c.56,.54,.58,1.42,.04,1.98-.54,.56-1.42,.58-1.98,.04-.56-.54-.58-1.42-.04-1.98,.54-.56,1.42-.58,1.98-.04Z"/><path class="cls-26" d="M89.38,60.95c.16,.15,.16,.39,.01,.55-.15,.16-.39,.16-.55,.01-.16-.15-.16-.39-.01-.55,.15-.16,.39-.16,.55-.01Z"/></g><g><path class="cls-79" d="M95.46,60.73s3.25-.39,3.65-2.38c.49-2.42-2.19-2.94-3.37-2.06-1.09,.81-1.71,2.36-.29,4.44Z"/><path class="cls-78" d="M98.26,55.94c-.83-.42-1.63-.31-2.36,.12-.75,.44-1.29,1.35-1.25,2.03,.13-.84,.75-1.41,1.15-1.71,.65-.48,1.74-.59,2.46-.13,.64,.41,1.01,1.29,.83,2.18,.36-.71,.03-2.05-.83-2.49Z"/><path class="cls-54" d="M97.78,57.32c.56,.54,.58,1.42,.04,1.98-.54,.56-1.42,.58-1.98,.04-.56-.54-.58-1.42-.04-1.98,.54-.56,1.42-.58,1.98-.04Z"/><path class="cls-26" d="M97.58,57.16c.16,.15,.16,.39,.01,.55-.15,.16-.39,.16-.55,.01-.16-.15-.16-.39-.01-.55,.15-.16,.39-.16,.55-.01Z"/></g><g><path class="cls-62" d="M97.22,66.25c-.08,.17-.17,.33-.28,.48-.29,.39-.71,.72-1.3,.95-.83,.31-1.54,.25-2.13-.01-.11-.04-.21-.1-.31-.16-1.16-.71-1.68-2.19-1.47-2.58,.07-.13,.16-.26,.25-.37,1.01-1.24,3.33-1.87,4.38-1.85,.21,0,.36,.03,.45,.09,.39,.26,1.04,2.05,.41,3.46Z"/><path class="cls-26" d="M96.37,62.7c0,.33,0,.94-.2,1.07-.07,.05-.46-.04-.75-.19-.97,.67-2.41,1.05-2.41,1.05,0,0-.17,.5-.29,.55-.11,.04-.36,0-.73-.62,1.01-1.24,3.33-1.87,4.38-1.85Z"/><path class="cls-28" d="M97.22,66.25c-.26,.59-.75,1.12-1.58,1.43-.99,.37-1.8,.22-2.43-.17,.52-1.51,1.54-1.06,1.9-1.19,.37-.13,.73-1.06,2.12-.07Z"/><path class="cls-31" d="M97.29,66.27c-.14,.34-.36,.65-.64,.9-.27,.25-.6,.44-.94,.58-.34,.14-.71,.23-1.08,.24-.37,.01-.75-.05-1.1-.2-.69-.3-1.26-.85-1.6-1.51-.17-.33-.31-.68-.33-1.07,0-.05,0-.1,0-.15v-.08l.04-.08c.04-.09,.1-.17,.15-.24,.11-.15,.24-.28,.37-.41,.27-.26,.57-.46,.89-.64,.32-.18,.65-.33,.99-.45,.68-.24,1.39-.43,2.11-.47,.18,0,.36,0,.54,.04,.04,.01,.09,.03,.13,.05,.03,.03,.07,.06,.1,.09,.06,.07,.11,.15,.15,.23,.16,.32,.28,.67,.35,1.02,.15,.7,.15,1.46-.13,2.15Zm-.18-.08c.28-.63,.31-1.36,.18-2.04-.06-.34-.17-.68-.33-.98-.04-.07-.09-.14-.14-.2-.02-.04-.05-.04-.07-.07-.02-.01-.05-.03-.09-.04-.15-.04-.33-.03-.5-.03-.7,.05-1.4,.23-2.06,.48-.33,.13-.65,.28-.96,.46-.3,.18-.59,.38-.84,.62-.12,.12-.24,.25-.34,.39-.05,.07-.1,.15-.13,.21,0,.01,0,.03-.01,.04v.05s0,.08,0,.11c.02,.32,.16,.66,.32,.96,.33,.61,.85,1.13,1.48,1.4,.32,.13,.66,.2,1,.19,.34,0,.68-.09,1.01-.21,.32-.12,.63-.3,.88-.53,.26-.23,.46-.51,.6-.82Z"/><path class="cls-4" d="M93.51,67.25c.07,.24,1.06,.5,1.98,.1,.93-.4,1.3-.99,1.26-1.13-.03-.15-.56-.39-.81-.29-.25,.1-.51,.54-.77,.64s-.79-.22-1.16,.02c-.37,.24-.55,.56-.51,.67Z"/></g></g></g></g><g><path class="cls-26" d="M151.76,168.52c.07-.22,.14-.45,.18-.68,.27-1.5-.19-3.09-1.28-4.47-.7-.88-1.62-1.58-2.68-2.02-1.49-.62-3.11-.67-4.45-.19-2.12-.73-5.2-1.13-8.85,.4-3.41,1.43-5.55,3.98-6.43,6.22-2.22,1.13-3.66,3.98-3.25,6.72,.31,2.09,1.46,3.69,3.15,4.39h.02c.33,1.17,.8,2.32,1.43,3.43,.51,.89,1.03,1.67,1.7,2.37-.09,.34-.14,.7-.13,1.08,.02,.93,.38,2.29,2.02,3.49,.13,.1,.27,.17,.41,.23,.68,.28,1.48,.17,2.07-.32,.4-.34,.64-.82,.69-1.32,.33-.15,.78-.31,1.06-.36,2.47,.23,4.85-.25,8.16-1.66,6.37-2.71,9.74-8.43,8-13.61-.45-1.33-1.07-2.56-1.81-3.69Z"/><g><path class="cls-52" d="M149.09,164.6c-1.42-1.8-3.97-2.21-5.37-1.36-1.4,.85-.95,2.65,.17,4.5,1.13,1.85,3.18,2.66,4.57,1.8,1.91-1.17,1.96-3.24,.62-4.94Z"/><path class="cls-68" d="M147.11,164.95c-.49-.81-1.47-1.11-2.19-.68-.71,.43-.89,1.44-.4,2.25,.49,.81,1.47,1.11,2.19,.68,.71-.43,.89-1.44,.4-2.25Z"/><path class="cls-52" d="M126.97,174.18c-.34-2.27,1.1-4.41,2.68-4.84,1.58-.44,2.58,1.12,3.16,3.2,.58,2.08-.24,4.13-1.82,4.57-2.16,.59-3.7-.79-4.02-2.92Z"/><path class="cls-68" d="M128.69,172.93c-.25-.91,.19-1.83,1-2.06,.81-.22,1.66,.34,1.92,1.25s-.19,1.83-1,2.06c-.81,.22-1.66-.34-1.92-1.25Z"/><path class="cls-89" d="M131.34,181.32c-3.88-6.81-.87-13.75,4.98-16.28,5.85-2.53,12.92,.59,15.35,7.81,1.35,4.01-1.28,8.75-6.88,11.13-2.93,1.25-5.09,1.74-7.33,1.49-.52-.06-3.75,.86-3.09,2.16-1.98-1.45-1.03-3.02-.51-3.44-1.07-.68-1.75-1.51-2.52-2.87Z"/><path class="cls-52" d="M150.19,174.39c-1.48-3.86-4.5-10.07-6.23-10.91-1.83-.89-4.85-1.62-8.5-.09-3.35,1.41-5.35,4.17-5.65,6.13-.35,2.32,1.89,8.51,3.38,11.5,1.76,3.52,6.26,2.59,10.35,.85,3.83-1.63,7.83-4.4,6.65-7.48Z"/><path class="cls-89" d="M150,178.86c-1.14,1.46-3.76,3.11-6.25,4.23-2.71,1.22-5.68,2.1-7.6,1.81-1.27-.2-4.57-4.45-3.92-4.27,.74,.21,1.79,.22,2.98,.08,.36,.47,1.67,1.46,1.89,1.57-.18-.25-.7-1.2-.97-1.7,1.45-.24,3.05-.67,4.55-1.22,.21,.57,.81,1.17,.82,1.21,.1-.24,.09-1.17,.09-1.57,.22-.09,.44-.19,.65-.28,1.96-.88,3.36-1.66,4.42-2.41,.69,1.75,.92,2.29,.85,2.18,.05-.46-.14-1.63-.48-2.45,.39-.29,.73-.58,1.03-.87,.26,.48,.72,1.24,.8,1.37,.11-.16-.08-1.4-.22-1.97,.48-.54,.88-1.09,1.28-1.69,.44-.65,.99,4.81,.06,5.99Z"/><g><g class="cls-22"><path class="cls-32" d="M133.86,170.67c.89-.37,2.27,.83,2.42,.97,.07,.06,.08,.17,.01,.24-.06,.07-.17,.08-.24,.01-.38-.33-1.48-1.15-2.07-.91-.09,.04-.18,0-.22-.09s0-.18,.09-.22Z"/></g><g class="cls-22"><path class="cls-32" d="M141.07,167.86c.09-.04,.18,0,.22,.09s0,.18-.09,.22c-.59,.24-.8,1.6-.83,2.1,0,.09-.09,.16-.18,.16-.09,0-.16-.09-.16-.18,.01-.21,.15-2.03,1.04-2.39Z"/></g><path class="cls-84" d="M138.5,169.33c-.05,.01-.08,.06-.08,.11,.04,.38-.19,.69-.57,.79-.39,.1-.74-.06-.89-.4-.02-.05-.09-.08-.14-.06-.05,.02-.08,.09-.06,.14,.19,.44,.66,.65,1.14,.52,.48-.13,.78-.54,.73-1.02,0-.06-.06-.1-.12-.1h-.02Z"/><path class="cls-57" d="M144.47,175.51c.07-.04,.13-.11,.16-.2,.38-1.11,1.72-2.14,3.12-2.4,.2-.03,.33-.22,.3-.42-.03-.19-.22-.32-.41-.28-1.68,.31-3.23,1.53-3.69,2.89-.06,.19,.04,.39,.23,.44,.1,.03,.21,.02,.29-.04Z"/><path class="cls-57" d="M137.49,178.44c.07-.03,.13-.1,.16-.18,.05-.16-.08-.41-.23-.46-1.13-.35-2.66,.1-3.65,1.08-.12,.12-.08,.39,.04,.5,.12,.12,.3,.12,.42,0,.83-.82,2.14-1.22,3.06-.93,.07,.02,.15,.02,.21-.01Z"/><path class="cls-54" d="M135.15,173c.49-.08,.94-.09,1.33-.06,0-.18-.01-.36-.06-.54-.39-.04-.83-.04-1.32,.03-1.12,.16-2.06,.44-2.87,.8-.08,.19-.1,.41-.08,.64,.84-.37,1.83-.68,2.99-.86Z"/><path class="cls-54" d="M140.54,171.34c.34-.33,.76-.67,1.27-1,1.19-.77,2.32-1.32,3.36-1.71-.14-.18-.32-.32-.53-.39-.99,.37-2.07,.9-3.21,1.66-.5,.33-.9,.67-1.23,1,.1,.16,.21,.31,.33,.44Z"/><path class="cls-31" d="M137.29,165.48c-.12-.28-.65-.31-1.19-.08-.53,.24-.87,.65-.74,.93,.12,.28,.65,.31,1.19,.08,.53-.24,.87-.65,.74-.93Z"/></g></g></g><g><path class="cls-26" d="M158.41,90.39c-.69,2.03-1.15,5.15,.4,8.85,1.23,2.93,3.49,5.32,6.05,6.39,.06,.02,.12,.04,.17,.06,.61,1.19,1.72,2.19,3.13,2.78,1.14,.48,2.38,.63,3.58,.45,1.74-.26,3.16-1.11,3.99-2.39,.16-.25,.29-.5,.4-.77,1.16-.33,2.31-.81,3.43-1.44,.06-.03,.1-.07,.16-.1l.05,.02c.23,.12,.45,.22,.66,.31,.44,.18,.84,.3,1.25,.38,.77,.13,1.53,.04,2.26-.26,1.1-.45,1.9-1.26,2.31-2.35,.19-.5,.26-1.03,.26-1.57h0c.55-.75,.51-1.78-.09-2.48-.21-.25-.47-.43-.75-.55-.04-.02-.08-.02-.13-.03-.21-.32-.45-.62-.72-.87-.03-.11-.06-.21-.07-.3,.24-2.47-.25-4.85-1.66-8.16-1.57-3.69-4.12-6.42-7.18-7.69-2.14-.89-4.36-1-6.43-.3-1.35,.45-2.59,1.07-3.71,1.81-1.65-.55-3.54-.16-5.13,1.1-2.17,1.72-3.07,4.79-2.22,7.13Z"/><g><path class="cls-52" d="M161.86,84.82c-1.8,1.42-2.21,3.97-1.36,5.37,.85,1.4,2.65,.95,4.5-.17,1.85-1.13,2.66-3.18,1.8-4.57-1.17-1.91-3.24-1.96-4.94-.62Z"/><path class="cls-68" d="M162.21,86.81c-.81,.49-1.11,1.47-.68,2.19,.43,.71,1.44,.89,2.25,.4,.81-.49,1.11-1.47,.68-2.19-.43-.71-1.44-.89-2.25-.4Z"/><path class="cls-52" d="M171.44,106.95c-2.27,.34-4.41-1.1-4.84-2.68-.44-1.58,1.12-2.58,3.2-3.16,2.08-.58,4.13,.24,4.57,1.82,.59,2.16-.79,3.7-2.92,4.02Z"/><path class="cls-68" d="M170.19,105.23c-.91,.25-1.83-.19-2.06-1-.22-.81,.34-1.66,1.25-1.92,.91-.25,1.83,.19,2.06,1,.22,.81-.34,1.66-1.25,1.92Z"/><path class="cls-89" d="M178.58,102.58c-6.81,3.88-13.75,.87-16.28-4.98-2.53-5.85,.59-12.92,7.81-15.35,4.01-1.35,8.75,1.28,11.13,6.88,1.25,2.93,1.74,5.09,1.49,7.33-.06,.52,.86,3.75,2.16,3.09-1.45,1.98-3.02,1.03-3.44,.51-.68,1.07-1.51,1.75-2.87,2.52Z"/><path class="cls-52" d="M171.65,83.73c-3.86,1.48-10.07,4.5-10.91,6.23-.89,1.83-1.62,4.85-.09,8.5,1.41,3.35,4.17,5.35,6.13,5.65,2.32,.35,8.51-1.89,11.5-3.38,3.52-1.76,2.59-6.26,.85-10.35-1.63-3.83-4.4-7.83-7.48-6.65Z"/><path class="cls-89" d="M176.12,83.92c1.46,1.14,3.11,3.76,4.23,6.25,1.22,2.71,2.1,5.68,1.81,7.6-.2,1.27-4.45,4.57-4.27,3.92,.21-.74,.22-1.79,.08-2.98,.47-.36,1.46-1.67,1.57-1.89-.25,.18-1.2,.7-1.7,.97-.24-1.45-.67-3.05-1.22-4.55,.57-.21,1.17-.81,1.21-.82-.24-.1-1.17-.09-1.57-.09-.09-.22-.19-.44-.28-.65-.88-1.96-1.66-3.36-2.41-4.42,1.75-.69,2.29-.92,2.18-.85-.46-.05-1.63,.14-2.45,.48-.29-.39-.58-.73-.87-1.03,.48-.26,1.24-.72,1.37-.8-.16-.11-1.4,.08-1.97,.22-.54-.48-1.09-.88-1.69-1.28-.65-.44,4.81-.99,5.99-.06Z"/><g><path class="cls-25" d="M169.89,102.71c-.41,.22-1.04-.17-1.42-.86-.38-.7-.35-1.44,.05-1.66,.41-.22,1.04,.17,1.42,.86,.38,.7,.35,1.44-.05,1.66Z"/><path class="cls-25" d="M164.5,91.31c-.43,.16-1.01-.31-1.28-1.05-.27-.74-.14-1.47,.29-1.63,.43-.16,1.01,.31,1.28,1.05,.27,.74,.14,1.47-.29,1.63Z"/><path class="cls-84" d="M167.05,96.42s0-.1,.04-.13c.3-.2,.4-.55,.25-.9-.15-.35-.48-.52-.82-.43-.05,.01-.11-.02-.13-.07-.02-.05,.02-.11,.07-.13,.44-.12,.88,.1,1.07,.54,.19,.44,.06,.9-.33,1.15-.05,.03-.11,.02-.14-.03v-.02Z"/><path class="cls-35" d="M181.15,98.43c-.08-.45,.28-.87,.74-.85,.41,.02,.78,.13,1.13,.34,.51,.31,.91,.8,1.19,1.49,.34,.83,.39,1.57,.16,2.21-.21,.55-.61,.95-1.19,1.19-.38,.16-.77,.2-1.17,.14-.37-.07-.81-.23-1.32-.49-.53-.26-.95-.39-1.25-.4-.21,0-.48,.06-.82,.17-.13,.05-.28-.02-.33-.15l-.25-.61c-.05-.13,0-.29,.14-.34,.51-.21,.95-.31,1.32-.29,.31,.01,.71,.12,1.18,.31,.52,.22,.92,.33,1.2,.35,.24,.02,.48-.02,.72-.12,.33-.14,.54-.35,.64-.65,.09-.27,.07-.57-.07-.89-.16-.39-.43-.65-.8-.76-.15-.04-.31-.06-.47-.06-.36,.01-.67-.25-.73-.6Zm-4.28,4.74c-.39,.16-.84-.03-1-.42l-.03-.08c-.16-.39,.03-.84,.42-1s.84,.03,1,.42l.03,.08c.16,.39-.03,.84-.42,1Z"/><g><path class="cls-31" d="M164.34,97.92c-.31,.13-.5-.36-.75-.96s-.46-1.08-.15-1.21,1.02,.15,1.27,.75-.07,1.29-.38,1.42Z"/><path class="cls-64" d="M175.65,99.91c-.11-.07-.18-.2-.21-.34-.03-.12,0-.25,.04-.35,.32-.68,.29-2.01-.17-2.86-.07-.12-.11-.27-.09-.36,.02-.15,.11-.26,.22-.32,.1-.05,.21-.08,.33-.05,.11,.03,.21,.12,.28,.23,.7,1.14,.77,2.87,.24,3.84-.07,.13-.2,.22-.31,.25-.1,.03-.23,.04-.33-.03Z"/><path class="cls-64" d="M168.56,86.61c-.03,.12,.01,.27,.09,.39,.07,.1,.17,.19,.28,.22,.7,.25,1.62,1.23,1.89,2.16,.04,.14,.12,.27,.19,.33,.12,.1,.26,.11,.39,.07,.1-.03,.21-.09,.26-.2,.06-.1,.07-.23,.04-.36-.31-1.3-1.48-2.58-2.53-2.9-.15-.04-.3-.02-.39,.04-.1,.05-.19,.13-.21,.25Z"/></g><g><path class="cls-77" d="M171.67,96.37c-1.14-.23-2.08,.27-2.23,.97-.22,1.04,.45,3.01,1.56,3.38,1.07,.35,2.38-.6,2.5-1.98,.11-1.21-.72-2.14-1.83-2.36Z"/><path class="cls-72" d="M173.44,99.81c1-1.46-.37-3.37-1.81-3.45,1.14,.23,1.9,1.23,1.79,2.36-.07,.69-.44,1.33-1,1.69-.45,.3-1.04,.41-1.49,.27,.36,.24,1.77,.2,2.51-.87Z"/><path class="cls-54" d="M172.41,97.65c-.28-.67-1.04-.99-1.71-.71s-.99,1.04-.71,1.71,1.04,.99,1.71,.71,.99-1.04,.71-1.71Z"/><path class="cls-82" d="M172.26,98.54c-.08-.18-.29-.27-.47-.2s-.27,.29-.2,.47,.29,.27,.47,.2,.27-.29,.2-.47Z"/></g><g><path class="cls-77" d="M169.42,91.67c-.65,.97-1.67,1.27-2.26,.88-.89-.59-1.8-2.46-1.27-3.5,.52-1,2.11-1.25,3.17-.35,.93,.79,.99,2.03,.36,2.96Z"/><path class="cls-72" d="M168.26,87.98c1.74,.33,2.1,2.65,1.14,3.72,.65-.96,.48-2.21-.39-2.93-.53-.44-1.25-.63-1.9-.5-.53,.11-1.03,.44-1.25,.86,.08-.42,1.12-1.39,2.4-1.15Z"/><path class="cls-54" d="M169.05,90.23c.28,.67-.04,1.44-.71,1.71s-1.44-.04-1.71-.71,.04-1.43,.71-1.71,1.43,.04,1.71,.71Z"/><path class="cls-82" d="M168.31,89.71c.08,.18-.01,.4-.2,.47s-.4-.01-.47-.2,.01-.4,.2-.47,.4,.01,.47,.2Z"/></g></g></g></g><g id="_2738539011168"><path class="cls-33" d="M82.96,165.9c-.29,.6-.04,1.32,.56,1.61,.6,.29,1.32,.04,1.61-.55,.19-.38,.13-.81-.08-1.15,.27-.05,.51-.2,.64-.47,.21-.44,.03-.97-.41-1.18-.44-.21-.97-.03-1.18,.41-.11,.22-.11,.46-.04,.67-.45,0-.88,.24-1.09,.67Z"/><path class="cls-33" d="M95.12,174.97c.03,.29,.13,.53,.27,.75-.56,.16-.95,.54-.91,.96,.03,.25,.21,.47,.48,.61-1.47,1.3,1.13,2.28,1.25,1.72,.01,.34,.18,.69,.47,.91,.49,.37,1.16,.26,1.5-.25,.12-.18,.18-.4,.18-.62,.3,.16,.63,.27,.99,.31,1.46,.14,2.73-.95,2.86-2.45,.03-.39-.03-.77-.14-1.12,.74-.23,1.22-.67,1.27-1.22,.04-.47-.25-.93-.78-1.28,.11-.21,.15-.53-.1-.74,.43-.19,.57-.53,.58-.89,.01-.33-.2-.68-.55-.87,.08-.09,.15-.19,.19-.32,.14-.45-.11-.94-.56-1.08-.18-.06-.36-.04-.52,.02-.22-.16-.48-.21-.73-.17,.27-.59,.12-1.44-.36-1.73-.35-.21-.98-.12-1.3,.5-.23,.45-.1,1.39,.05,1.72-.92-.04-1.71,.6-1.78,1.48-.03,.27,.03,.53,.13,.77-.52-.32-1.05-.37-1.39-.07-.36,.31-.4,.92-.17,1.55-.59,.2-1,.82-.94,1.52Z"/><g><path class="cls-35" d="M98.3,178.94c3.15-2.38,3.91-6.24,3.91-10.14-1.88,5.89-3.99,8.65-6.92,9.97-.04,.24,2.68,.43,3.01,.18Z"/><path class="cls-35" d="M95.57,178.81c-2.07-.59-5.51,3.74-3.02,7.23,3.61-2.37,3.86-5.05,3.02-7.23Z"/><path class="cls-73" d="M94.87,179.61c2.18,.68-.94,3.01-1.23,3.22-.85-1.5-.12-3.64,1.23-3.22Z"/><path class="cls-35" d="M95.7,179.14c2.26-2.27,8.9,.44,5.87,6.24-3.18-2.92-6.15-4.08-5.87-6.24Z"/><path class="cls-73" d="M96.28,179.68c-.02,1.02,1.54,1.66,3.63,2.21,.17-1.12-2.11-3.63-3.63-2.21Z"/><path class="cls-35" d="M95.62,180.8c-.58,0-1.06-.5-1.06-1.12,0-.62,.48-1.12,1.06-1.12,.58,0,1.06,.5,1.06,1.12,0,.62-.48,1.12-1.06,1.12Z"/></g><g><g><path class="cls-83" d="M104.02,167.58c-.14-1.64-1.54-2.84-2.69-2.88-1.15-.04-1.57,1.21-1.62,2.76-.05,1.55,.84,2.62,1.99,2.87,1.53,.33,2.46-1.21,2.32-2.75Z"/><path class="cls-50" d="M102.64,166.96c-.17-.71-.78-1.14-1.37-.97-.58,.17-.92,.88-.75,1.58,.17,.71,.78,1.14,1.36,.97,.58-.17,.92-.88,.75-1.58Z"/></g><g><path class="cls-83" d="M84.58,161.41c1.06-1.25,2.9-1.43,3.86-.8,.96,.63,.58,1.9-.27,3.19-.85,1.29-2.2,1.65-3.28,1.19-1.44-.62-1.31-2.41-.31-3.58Z"/><path class="cls-50" d="M86.07,161.7c.55-.48,1.3-.48,1.68,0,.38,.48,.25,1.25-.3,1.73-.55,.48-1.3,.48-1.68,0-.38-.48-.25-1.25,.3-1.73Z"/></g></g><path class="cls-33" d="M83.19,168.63c1.79-5.54,6.23-6.85,11.32-5.2,5.09,1.65,8.34,5.45,6.55,10.99-1.79,5.54-6.64,5.72-11.13,4.35-4.63-1.41-8.53-4.6-6.74-10.14Z"/><path class="cls-83" d="M84.53,169.64c-.1,3.34,2.54,5.14,6.1,6.3h.04c3.57,1.12,6.78,1.18,8.62-1.61,1.54-2.33,2.44-8.15,1.97-10.1-.4-1.65-2.97-4.04-5.28-4.76l-.14-.05c-2.3-.74-5.78-.27-7.06,.84-1.53,1.32-4.15,6.58-4.24,9.37Z"/><path class="cls-33" d="M102.19,175.26c-.09,1.05-.97,1.99-1.59,2.06,.3,.74-.05,1.57-.79,1.88-.48,.19-1,.11-1.4-.17-.66,1.24-2.36,1.2-3.32,.37,.18,.32,.18,.71,.09,1.01-.35,1.07-1.66,1.59-2.93,1.17-.81-.27-1.41-.86-1.65-1.54-.5,.18-1.07,.2-1.62,.02-.65-.21-1.15-.66-1.43-1.22-.39,.43-.89,.73-1.46,.85-1.66,.34-3.58-.98-3.76-2.55-.07-.31,.04-.93,.16-1.3-.19,.03-.63,.06-.83,0-.58-.19-.91-.8-.74-1.37,.07-.23,.24-.51,.44-.63-.74-.31-1.25-.95-1.4-1.65-.29-1.37,.45-2.71,1.69-2.94,.15-.03,.3-.04,.44-.04,.09-.16,.19-.32,.3-.47-.14,.02-.28,0-.43-.05-.58-.19-.9-.85-.7-1.46,.2-.62,.83-.93,1.42-.76,.21,.06,.4,.23,.52,.47,.08-.16,.32-.34,.44-.4,.43-.21,1.17-.03,1.55,.58,.26,.42,.31,.9,.16,1.26,.65,.54,.91,1.58,.58,2.6l-.03,.09c.25-.12,.56-.16,.87-.06,.54,.18,.87,.72,.77,1.23,.06-.02,.13-.04,.2-.06,1.19-.26,2.4,.66,2.69,2.01,.04,.18,.06,.35,.06,.52,.19-.5,.6-.89,1.14-1,.87-.18,1.73,.44,1.98,1.39,.89-.36,2.49,.19,2.97,1.28,.06-.34,.19-.79,.38-1.03,.43-.68,1.23-.83,1.97-.62-.26-.54-.11-1.3,.86-1.31-1.14-.93-.64-1.86,.07-1.97,.58-.09,1.2,.29,1.44,.71,.25,.44-.34,1.01-.26,1.03,.79,.41,1.24,1.18,1.16,2.07Z"/><g><path class="cls-36" d="M100.3,166.46c.14-.35-.24-.83-.84-1.06-.6-.24-1.2-.14-1.34,.2-.14,.35,.24,.82,.84,1.06,.6,.24,1.2,.15,1.34-.2Z"/><path class="cls-36" d="M90.12,163.03c.09-.37-.35-.78-.98-.94-.62-.15-1.21,.03-1.3,.39-.09,.37,.35,.78,.98,.94,.62,.15,1.21-.03,1.3-.39Z"/><path class="cls-72" d="M93.33,165.16s.06,.05,.06,.1c-.04,.32,.12,.58,.45,.68,.31,.1,.62-.02,.75-.3,.02-.04,.08-.07,.12-.04,.04,.02,.07,.08,.04,.12-.17,.36-.56,.52-.97,.39-.39-.12-.62-.47-.56-.87,0-.04,.05-.09,.1-.07h.01Z"/><g><path class="cls-77" d="M91.12,167.33c.86-.69,1.07-1.67,.66-2.18-.62-.78-2.43-1.51-3.36-.92-.9,.56-1,2.06-.08,2.99,.81,.81,1.96,.77,2.79,.11Z"/><path class="cls-72" d="M87.59,166.53c.45,1.6,2.64,1.76,3.56,.78-.86,.69-2.03,.62-2.77-.13-.46-.46-.68-1.12-.61-1.74,.06-.51,.33-1,.7-1.24-.39,.11-1.21,1.15-.88,2.33Z"/><path class="cls-75" d="M89.75,167.09c.65,.21,1.34-.15,1.54-.8,.21-.65-.15-1.34-.8-1.54-.65-.21-1.34,.15-1.54,.8-.21,.65,.15,1.34,.8,1.54Z"/><path class="cls-82" d="M89.2,166.45c.18,.06,.37-.04,.42-.22,.06-.18-.04-.37-.22-.42-.18-.06-.37,.04-.42,.22-.06,.18,.04,.37,.22,.42Z"/></g><g><path class="cls-77" d="M95.17,168.62c-.3-1.05,.09-1.98,.72-2.16,.95-.28,2.85,.17,3.28,1.19,.41,.98-.37,2.26-1.66,2.49-1.13,.2-2.05-.5-2.34-1.52Z"/><path class="cls-72" d="M98.52,170c-1.29,1.05-3.18-.09-3.35-1.42,.3,1.05,1.3,1.68,2.34,1.5,.64-.11,1.2-.52,1.5-1.07,.24-.45,.31-1.01,.14-1.41,.25,.31,.32,1.64-.63,2.41Z"/><path class="cls-75" d="M96.43,169.21c-.65-.21-1-.9-.8-1.54,.21-.65,.9-1,1.54-.8,.65,.21,1,.9,.8,1.54-.21,.65-.9,1-1.54,.8Z"/><path class="cls-82" d="M97.25,169c-.18-.06-.28-.25-.22-.42,.06-.18,.25-.28,.42-.22,.18,.06,.28,.25,.22,.42-.06,.18-.25,.28-.42,.22Z"/></g><path class="cls-55" d="M98.16,172.84c.03-.1,.02-.21-.04-.32-.06-.11-.17-.19-.29-.23-.11-.04-.23-.03-.33,0-.66,.24-1.72,.06-2.46-.46-.08-.06-.19-.09-.29-.09-.14,0-.28,.05-.35,.15-.07,.08-.1,.2-.08,.31,.02,.11,.09,.21,.2,.28,1.04,.69,2.47,.95,3.43,.59,.1-.05,.18-.13,.22-.23Z"/><path class="cls-55" d="M86.31,169.05c.03-.1,.1-.18,.21-.24,.11-.06,.25-.06,.37-.02,.11,.04,.21,.11,.27,.2,.4,.58,1.37,1.04,2.28,1.04,.1,0,.21,.03,.29,.09,.11,.08,.2,.2,.2,.33,.01,.11-.03,.22-.12,.29-.08,.08-.2,.12-.32,.11-1.25-.04-2.56-.64-3.14-1.5-.05-.1-.07-.21-.05-.31Z"/><path class="cls-31" d="M97.22,163.29c-.08-.15-.27-.21-.43-.13-.46,.25-1.25,.22-2.09-.07-.81-.29-1.44-.77-1.64-1.26-.07-.16-.26-.24-.42-.17-.08,.03-.14,.09-.17,.17-.03,.08-.03,.17,0,.25,.27,.65,1.02,1.25,2.01,1.61h.04c.99,.36,1.95,.37,2.57,.04,.15-.08,.21-.28,.13-.43Z"/></g></g><g><path class="cls-26" d="M66.68,126.51c-.09-.08-.19-.16-.29-.23,0-.13,0-.26-.03-.4-.11-.68-.6-1.3-1.24-1.56l-.05-.02c-2.69-1.04-4.69-1.41-6.11-1.1-.13-.09-.27-.17-.42-.24-.21-.09-.43-.14-.67-.15-1-.05-1.89,.65-2.07,1.63-.03,.18-.34,.29-.59,.34-.83,.17-1.83,.69-2.21,2.13-2.41,.1-4.13,1.67-4.28,3.95-.03,.49-.22,1.11-.51,1.75-3.27,2.52-4.2,7.58-2.13,12.65,1.58,3.89,3.71,6.41,6.32,7.5,.69,.29,1.41,.47,2.15,.55,.01,.05,.01,.1,.03,.16,.2,.76,.71,1.36,1.4,1.64,.92,.38,1.84,.11,2.48-.22,.63-.03,1.42-.21,2.03-.8,1.92,.32,3.24-.3,4.09-1.04,.37,.34,.75,.58,1.15,.75s.8,.25,1.21,.25c1.31,0,2.18-.79,2.69-1.32,.18,0,.34,0,.48,0,.67,.01,1.59,.03,2.55-.68,.38-.28,.63-.66,.75-1.08,1.16-.89,1.78-2.33,1.61-3.83-.03-.24-.09-.46-.2-.67,.03-.2,.04-.41,0-.61-.67-3.87-4.19-15.69-8.15-19.36Z"/><g><path class="cls-42" d="M57.78,124.81c-.07,.38-.38,1.56-2.15,1.93-.66,.14-.71,.65-.75,1.1-.06,.61-.11,1.14-1.4,1.08-1.61-.08-2.66,.72-2.75,2.08-.07,1.06-.53,2.33-1.26,3.52-.48,.53-.96,1-1.32,1.33,1.01,5.35,6.52,12.8,8.54,14.94l-.28,.48c1.29-.34,2.62,.37,3.69,.69,1.31,.4,2.49,.33,3.38-.63,.36-.38,.68-.69,1.07-.69,.33,0,.7,.23,1.14,.71,.44,.47,.85,.7,1.25,.7,.57,0,.99-.45,1.37-.84,.26-.28,.76-.46,1.05-.47,1.06-.05,1.53,.13,2.12-.3-.67,.33-1.2,.08-2.09,.1-.33,0-.83,.15-1.31,.67-.35,.37-.64,.65-1.13,.65-.35,0-.71-.21-1.11-.64-.49-.53-.89-.77-1.29-.77-.15,0-.28,.04-.42,.11,.53-.56,1.07-.78,2.08,.19,1.85,1.78,2.46-.94,3.23-.88,1.33,.1,1.61,.17,2.43-.27,.94-.51,1.24-1.44,1.15-2.22-.16,.05-.78,1.13-2.52,1.15,.77-.47,2.38-2.07,2.34-2.31-.68-3.93-4.12-15.07-7.53-18.23-.65-.6-2.26,.22-2.81,.21-.39-.01,2.21-1.88,1.84-2.02-5.01-1.95-5.83-.72-5.7-.29,.17,.6,.37,.95-2.5,1.39-1.39,.22,.23,2.3-2.18,2.18-1.44-.07-2.37,.6-2.65,1.99-.1,.49-.34,1-.65,1.49,.18-.67,.29-1.31,.33-1.9,.08-1.27,.94-1.99,2.45-1.91,1.47,.07,1.54-.66,1.6-1.25,.05-.46,.08-.82,.6-.93,1.99-.4,2.13-1.92,2.11-2.12Zm5.36,26.59c-.78,.68-1.72,.77-2.86,.42-.64-.2-1.29-.64-1.98-.92,1.88-.03,3.6,.98,4.84,.5Z"/><g><path class="cls-52" d="M57.16,129.31c2.04-.25,3.92,1.1,4.27,2.53,.35,1.43-1.07,2.29-2.95,2.75-1.88,.46-3.7-.32-4.04-1.74-.47-1.95,.8-3.3,2.72-3.53Z"/><path class="cls-68" d="M58.21,130.78c.82-.2,1.64,.22,1.82,.95,.18,.73-.34,1.48-1.17,1.69-.82,.2-1.64-.22-1.82-.95-.18-.73,.34-1.48,1.17-1.69Z"/><path class="cls-52" d="M65.19,149.37c1.65-1.23,2.08-3.5,1.35-4.77-.73-1.28-2.35-.92-4.03,.04-1.68,.96-2.46,2.78-1.73,4.05,1,1.74,2.85,1.84,4.41,.68Z"/><path class="cls-68" d="M64.89,147.49c.74-.42,1.03-1.29,.66-1.94-.37-.65-1.27-.84-2.01-.42-.74,.42-1.03,1.29-.66,1.94,.37,.65,1.27,.84,2.01,.42Z"/><path class="cls-42" d="M57.55,151.08c6.3-1.74,8.54-7.73,6.51-12.8-2.03-5.08-8.09-7.5-13.76-4.64-3.15,1.59-4.34,6.03-2.37,10.87,2.06,5.06,5.14,7.81,9.62,6.57Z"/><path class="cls-52" d="M55.7,150.02c1.2,.05,10.05-3.84,10.89-5.38,.89-1.63,.37-6.61,0-7.55-.4-1.01-3.29-4.93-5.09-5.19-2.13-.32-10.29,2.43-11.11,3.13-2.78,2.37-1.77,5.2-.31,8.86,1.37,3.42,2.51,6,5.62,6.13Z"/><path class="cls-42" d="M48.33,137.5c-.19,1.61,.4,4.24,1.25,6.48,.92,2.43,2.21,4.81,3.59,5.82,.91,.66,5.58,.07,5.07-.22-.59-.33-1.24-.97-1.89-1.79-.51,.07-1.94-.13-2.14-.19,.27-.05,1.17-.31,1.65-.46-.75-1.05-1.47-2.3-2.06-3.57-.48,.22-1.22,.23-1.26,.24,.09-.21,.67-.78,.91-1.03-.08-.19-.16-.39-.23-.58-.67-1.76-1.05-3.11-1.25-4.22-1.51,.65-1.98,.85-1.87,.82,.25-.31,1.09-.92,1.81-1.22-.06-.42-.09-.81-.1-1.18-.46,.14-1.22,.32-1.34,.36,.03-.17,.91-.81,1.35-1.09,.03-.63,.13-1.22,.25-1.84,.13-.67-3.59,2.37-3.74,3.66Z"/><g><path class="cls-58" d="M57.92,152.88s1.49,.19,1.27-.63c-.22-.82-.99-1.32-1.73-1.12-.74,.2-1.17,1.02-.95,1.83,.22,.82,1.42-.08,1.42-.08Z"/><path class="cls-58" d="M56.77,148.51s1.2-.89,1.42-.08c.22,.82-.21,1.63-.95,1.83-.74,.2-1.52-.31-1.73-1.12-.22-.82,1.27-.63,1.27-.63Z"/><path class="cls-58" d="M57.22,150.15c.35-.09,.7,.08,.79,.39,.08,.31-.14,.64-.49,.73-.35,.09-.7-.08-.79-.39-.08-.31,.14-.64,.49-.73Z"/></g><g><path class="cls-27" d="M60.02,138.72s0,.1-.04,.13c-.32,.2-.44,.57-.28,.94,.15,.37,.5,.56,.86,.47,.06-.01,.12,.02,.13,.08,.01,.06-.02,.12-.08,.13-.46,.12-.92-.13-1.11-.59-.19-.46-.04-.95,.37-1.2,.05-.03,.12-.02,.15,.03v.02Z"/><path class="cls-59" d="M55.95,144.35c-.03-.08-.03-.17,0-.25,.07-.15,.26-.22,.41-.15,1.11,.53,1.97,1.96,2.03,3.4,0,.17-.12,.31-.29,.32-.17,0-.31-.12-.32-.29-.05-1.21-.77-2.45-1.68-2.87-.07-.03-.12-.09-.15-.16Z"/><path class="cls-59" d="M53.94,139.44c.03,.08,.09,.14,.18,.17,.16,.06,.34-.02,.39-.18,.42-1.16,.02-2.78-.95-3.85-.11-.13-.31-.13-.43-.02-.13,.11-.13,.31-.02,.43,.82,.9,1.17,2.28,.83,3.22-.03,.07-.02,.15,0,.22Z"/><g><path class="cls-77" d="M57.99,143.02c.64-.95,1.64-1.28,2.22-.91,.87,.55,1.77,2.33,1.24,3.35-.51,.98-2.06,1.24-3.1,.4-.92-.73-.98-1.92-.36-2.84Z"/><path class="cls-71" d="M59.12,146.56c-1.71-.29-2.06-2.51-1.11-3.57-.64,.95-.47,2.15,.38,2.83,.52,.42,1.22,.58,1.87,.44,.52-.11,1.01-.44,1.22-.85-.08,.4-1.1,1.36-2.35,1.15Z"/><path class="cls-76" d="M58.66,143c.51-.49,1.32-.49,1.81,0,.49,.49,.47,1.29-.05,1.79s-1.32,.49-1.81,0c-.49-.49-.47-1.29,.05-1.79Z"/><path class="cls-82" d="M58.59,143.14c.14-.14,.37-.14,.5,0,.14,.14,.13,.36-.01,.5-.14,.14-.37,.14-.5,0s-.13-.36,.01-.5Z"/></g><g><path class="cls-77" d="M56.28,138.86c1.12,.22,2.05-.27,2.21-.94,.23-1.01-.38-2.91-1.46-3.26-1.05-.33-2.32,.59-2.48,1.93-.14,1.17,.65,2.06,1.73,2.27Z"/><path class="cls-71" d="M54.61,135.54c-1.01,1.42,.3,3.25,1.71,3.32-1.12-.21-1.84-1.19-1.71-2.27,.08-.67,.46-1.28,1.02-1.64,.44-.29,1.03-.41,1.46-.27-.34-.23-1.73-.18-2.47,.86Z"/><path class="cls-76" d="M55.89,136.23c.51-.49,1.32-.49,1.81,0,.49,.49,.47,1.29-.05,1.79-.51,.49-1.32,.49-1.81,0-.49-.49-.47-1.29,.05-1.79Z"/><path class="cls-82" d="M55.82,136.37c.14-.14,.37-.14,.5,0,.13,.14,.13,.36-.01,.5-.14,.14-.37,.14-.5,0-.14-.14-.13-.36,.01-.5Z"/></g><g><path class="cls-31" d="M62.68,136.07c.59-.14,.52,.96,.93,2.23s1.17,2.15,.54,2.35-2.06-.52-2.52-1.99c-.39-1.27,.41-2.44,1.05-2.59Z"/><path class="cls-46" d="M62.96,136.64c.86-1.34,2.54-1.4,2.85-.3,.46,1.61-1.6,1.45-1.8,2.94,.02,.04,.15,.33,.21,.48-.46,.05-.84-.68-1.1-1.43-.34-.96-.38-1.34-.16-1.69Z"/><path class="cls-74" d="M63.39,137.63c.46-.61,1.26-.92,1.23-1.02-.03-.09-1.5,.53-1.6,1.39,.04,.14,.08,.28,.14,.45-.02-.21,.11-.66,.23-.82Z"/></g><path class="cls-25" d="M63.13,144.24c.4-.16,.49-.85,.21-1.52-.28-.68-.83-1.1-1.22-.93-.4,.16-.49,.85-.21,1.52,.28,.68,.83,1.1,1.22,.93Z"/><path class="cls-25" d="M59.98,136.59c.4-.16,.49-.85,.21-1.52-.28-.68-.83-1.1-1.22-.93-.4,.16-.49,.85-.21,1.52,.28,.68,.83,1.1,1.22,.93Z"/><g><path class="cls-60" d="M58.98,148.63c.45,1.19-.9,2.14-4.13,1.55,2.12-2.63,3.69-2.72,4.13-1.55Z"/><path class="cls-44" d="M58.81,148.65c-.14-.38-.44-.6-.86-.6,.16,.12,.29,.27,.37,.49,.26,.69-.1,1.3-1.07,1.57,1.31-.14,1.83-.75,1.56-1.46Z"/><path class="cls-26" d="M56.09,149.14c.25-.17,.51-.23,.57-.14,.06,.09-.1,.3-.35,.47-.25,.17-.51,.23-.57,.14-.06-.09,.1-.3,.35-.47Z"/></g><g><path class="cls-60" d="M56.84,133.09c.3,.8-.6,1.43-2.77,1.04,1.42-1.77,2.48-1.83,2.77-1.04Z"/><path class="cls-44" d="M56.73,133.11c-.1-.26-.3-.4-.57-.4,.1,.08,.19,.18,.25,.33,.17,.46-.07,.87-.72,1.05,.88-.09,1.23-.5,1.05-.98Z"/><path class="cls-26" d="M54.9,133.44c.17-.11,.34-.15,.38-.09,.04,.06-.07,.2-.24,.31-.17,.11-.34,.15-.38,.09-.04-.06,.07-.2,.24-.31Z"/></g></g></g></g></g><g><g><g><path class="cls-83" d="M170.71,125.6c-1.71,0-3.08,1.34-3.23,2.52-.14,1.18,1.12,1.74,2.71,1.93,1.6,.19,2.79-.64,3.15-1.8,.48-1.56-1.03-2.66-2.64-2.66Z"/><path class="cls-50" d="M169.94,126.98c-.75,.11-1.25,.71-1.13,1.33,.12,.62,.82,1.03,1.57,.92,.75-.11,1.25-.7,1.13-1.33-.12-.62-.82-1.03-1.57-.92Z"/></g><g><path class="cls-83" d="M162.23,145.94c-1.2-1.21-1.22-3.13-.48-4.07,.74-.93,2.02-.43,3.28,.57,1.26,1,1.51,2.43,.94,3.5-.77,1.44-2.61,1.14-3.74,0Z"/><path class="cls-50" d="M162.67,144.42c-.45-.61-.38-1.39,.15-1.74,.53-.35,1.32-.14,1.76,.47,.45,.61,.38,1.39-.15,1.74-.53,.35-1.32,.14-1.76-.47Z"/></g></g><path class="cls-49" d="M172.3,148.9c2.67,.79,6.28-2.61,8.21-7.25,1.93-4.64,1.82-9.61-.62-10.94-.94-.52-3.43-1.65-5.24-1.95-4.59-.76-7.83,.84-9.94,5.98-.04,.09-.19,.45-.23,.55-2.17,5.11-1.02,8.54,2.75,11.27,1.48,1.07,4.04,2.05,5.07,2.35Z"/><path class="cls-83" d="M170.65,146.46c3.6,.45,5.77-2.19,7.33-5.85l.02-.04c1.51-3.69,1.85-7.08-.99-9.32-2.39-1.88-8.58-3.42-10.73-3.11-1.81,.26-4.63,2.76-5.61,5.14l-.06,.15c-1.01,2.38-.79,6.13,.29,7.6,1.28,1.74,6.75,5.07,9.76,5.44Z"/><path class="cls-48" d="M172.33,149.57c.27,.11,.56,.04,.77-.14,.4,.58,1.27,.93,2.14,.71,.78-.2,1.21-1.03,1.32-1.53,.07,.08,.15,.14,.25,.18,.31,.13,.78-.02,.82-.33,.32,.19,.75,.33,1.16-.01,.53-.44,.58-1.35,.23-1.94,.33-.22,.61-.55,.79-.97,.12-.29,.19-.6,.18-.89,.23,.23,.83,.39,1.27-.1,.51-.57,.85-1.69,.18-2.65,.38,.17,.82,.12,1.18-.17,.54-.45,.67-1.3,.28-1.9-.13-.22-.32-.37-.52-.45,.25-.22,.47-.5,.6-.82,.31-.72,.23-1.5-.16-2.03,.37,0,.73-.28,.91-.68,.24-.54,.06-1.13-.39-1.34-.22-.09-.48-.08-.7,.04,.08-.2-.08-.5-.29-.49,.39-.55,.56-.97,.44-1.4-.08-.29-.55-.45-.87-.3,.26-.55,.2-.96,.01-1.29-.25-.42-.8-.43-1.02-.3,.04-.39-.78-.85-1.27-.14l-3.1-1.35s-.53-.02-.64,.17c1.19,.52,2.14,1.91,2.5,2.54-.27,.32-.4,.82-.3,1.37,.12,.58,.46,1.01,.86,1.19-.63,.24-.63,1.56-.18,1.82-.45,.2-.77,.78-.92,1.3-.2,.71-.06,1.33,.06,1.77-.37,.13-.93,.5-1.18,1.1-.19,.46-.24,.91-.19,1.26-.67,.44-.51,1.31-.1,1.43-.58,.09-.99,.38-1.5,1.18-.2,.32-.34,.75-.32,1-.01,0-.02-.02-.02-.02-.62-.26-1.37,.13-1.68,.88-.07,.17-.11,.35-.12,.52-1.08,.28-2.34,.25-3.3-.05-.02,.08-.39,.51-.46,.75l2.86,1.19c-.09,.36,.07,.74,.42,.88Z"/><g><path class="cls-63" d="M171.97,147.44s.04,.02,.06,.04c.02,.02,.04,.04,.06,.05l.02,.02,.03,.03,.03,.03,.02,.02,.04,.02h.01s0,.02,.01,.02l.02,.02,.03,.03,.03,.03s.02,.02,.02,.02h.02s.01,.02,.01,.03h.01l.02,.02h.02v.02s.02,0,.03,.02c.01,.01,.02,.02,.02,.02,0,0,0,0,.01,.01l.03,.03,.03,.03,.02,.02s.06,.06,.09,.09,.06,.07,.09,.1c0,0,0,.01,.02,.02h.02l.02,.02s0,0,.01,.02,.01,.02,.01,.02v.02l.04,.03,.03,.04,.02,.03,.03,.04s.02,.02,.04,.03l.03,.02s.02,.02,.03,.02v.03s.02,.01,.03,.02c0,.01,.02,.03,.03,.04s.03,.03,.04,.04,.02,.02,.03,.03c0,0,.01,.01,.03,.03,.01,.01,.02,.02,.03,.03h.02s.02,.03,.02,.03c0,0,0,0,.02,.02,0,.01,.01,.02,.02,.02,.03,.04,.07,.07,.11,.11,.04,.04,.08,.08,.12,.12,.04,.04,.08,.08,.12,.13,.04,.05,.07,.09,.1,.15,.03,.05,.05,.08,.07,.11,.02,.03,.03,.05,.05,.07,.01,.02,.02,.03,.03,.04l.03,.04,.05,.05s.05,.05,.08,.09v.02s.03,.02,.04,.03c0,.01,.02,.02,.03,.03l.02,.02s0,0,.01,.01h.01l.04,.02h.04l.27-.64s0-.02,.01-.04c0-.02,0-.04,.02-.06l.02-.06s0-.03,0-.04l.11-.27h.1l.63,.27s.04,.03,.05,.04c.02,0,.03,.02,.04,.03s.01,.02,.01,.04c0,.02,0,.04-.02,.07-.03,.06-.06,.12-.09,.18-.03,.06-.06,.12-.09,.19l-.72,1.68-.04,.07s-.02,.04-.04,.05c-.01,.01-.03,.01-.04,.01-.02,0-.04-.02-.06-.04-.04-.03-.06-.06-.08-.07-.02-.02-.03-.03-.03-.02-.04-.03-.08-.07-.12-.11-.05-.04-.09-.08-.13-.12-.04-.04-.08-.09-.12-.13-.04-.04-.06-.08-.08-.12l-.04-.02-.2-.26h0s-.02,0-.04,0c-.02-.01-.03-.03-.05-.05s-.03-.04-.04-.06-.02-.03-.03-.04c-.06-.06-.12-.12-.19-.19-.06-.07-.13-.13-.19-.19,0,0,0,0-.01-.01,0,0,0-.01,0-.01l-.06-.07-.09-.11s-.07-.09-.11-.13c-.04-.05-.07-.09-.11-.13-.03-.04-.06-.08-.09-.11s-.04-.06-.06-.08c-.01-.01-.03-.04-.07-.07s-.07-.06-.11-.1c-.04-.04-.07-.07-.11-.11s-.06-.07-.07-.09l-.03,.08s-.02,.04-.03,.08l-.04,.11-.04,.11s-.02,.06-.03,.08c0,0,0,.02-.01,.04s-.02,.04-.03,.07c0,.02-.02,.04-.03,.06s-.01,.03-.01,.04h0s0,.03-.02,.05-.02,.04-.03,.07c-.01,.02-.02,.05-.03,.07s-.02,.03-.02,.04v.03s-.03,.04-.04,.06l-.02,.06s-.01,.03-.02,.03c0,0,0,.02-.02,.03l-.03,.04-.03,.04s-.02,.02-.02,.02c0,0-.02,.01-.03,.01-.01,0-.03,0-.05-.01s-.04-.02-.07-.03c-.03-.01-.05-.02-.08-.04l-.04-.02h-.03s-.02-.02-.02-.02h-.03s-.01-.02-.02-.02h-.04l-.04-.02h-.03l-.11-.05-.11-.05s-.04-.05-.03-.07c0-.03,.01-.05,.03-.08,0,0,.01-.03,.02-.07l.04-.12s.03-.08,.05-.12l.03-.07,.11-.27v-.03l.02-.04v-.04l.02-.03,.02-.05,.03-.06,.03-.07s.03-.07,.05-.11l.05-.11s.03-.06,.04-.07c0,0,0-.03,.01-.05,0-.02,.01-.04,.01-.05h0v-.03c.04-.06,.07-.13,.1-.21s.06-.15,.09-.23,.07-.15,.1-.22c.04-.07,.08-.13,.12-.18,0-.01,.02-.02,.04-.03,.02,0,.03,0,.05,0Z"/><g class="cls-41"><path class="cls-63" d="M173.4,151.16s.04,.02,.05,.04,.03,.03,.05,.04h.02l.03,.04,.02,.02h.01l.03,.03h0s0,.02,0,.02h.01l.03,.04,.03,.03,.02,.02h.01v.02h.02l.02,.02h.02v.02s.02,0,.03,.02c0,.01,.01,.02,.02,.02h.01l.02,.03,.02,.02h.01s.05,.06,.07,.09c.02,.03,.05,.06,.07,.08,0,0,0,0,.02,.02h.01l.02,.02s0,0,.01,.02,.01,.02,.01,.02v.02l.03,.03,.02,.03,.02,.02,.03,.03s.02,.02,.03,.03l.02,.02s.02,.02,.02,.02v.03l.03,.02s.02,.02,.03,.04l.03,.04,.02,.03s0,.01,.02,.02c.01,.01,.02,.02,.02,.02h.02s.02,.02,.02,.03c0,0,0,0,.01,.02s.01,.02,.01,.02c.03,.03,.06,.06,.09,.09,.03,.03,.07,.07,.1,.1,.03,.03,.07,.07,.1,.11,.03,.04,.06,.08,.08,.12,.02,.04,.05,.07,.06,.09,.02,.02,.03,.04,.04,.06,.01,.01,.02,.03,.03,.04l.03,.03s.02,.03,.04,.04c.02,.02,.04,.04,.06,.08h.01l.02,.04,.02,.03,.02,.02h0v.02h.04l.03,.02,.23-.55s0-.02,.01-.03v-.05l.03-.05v-.03l.1-.23h.08l.53,.23s.03,.02,.04,.03c.01,0,.02,.02,.03,.02,0,0,.01,.02,.01,.03,0,.01,0,.03-.02,.06-.02,.05-.05,.11-.08,.15-.03,.05-.05,.1-.08,.16l-.6,1.42-.03,.06s-.02,.03-.03,.04c-.01,0-.02,.01-.04,0-.01,0-.03-.01-.05-.03-.03-.03-.05-.05-.07-.06-.01-.02-.02-.02-.03-.02-.03-.03-.07-.06-.11-.09-.04-.03-.08-.07-.11-.1-.04-.04-.07-.07-.1-.11-.03-.04-.05-.07-.07-.1h-.03l-.17-.24h0s-.02,0-.03,0c-.01-.01-.03-.02-.04-.04-.01-.02-.03-.03-.04-.05s-.02-.03-.03-.03c-.05-.05-.11-.1-.16-.16-.05-.06-.11-.11-.16-.16h0v-.02l-.06-.06-.08-.09-.09-.11s-.06-.08-.09-.11-.05-.07-.08-.1c-.02-.03-.04-.05-.05-.07,0-.01-.03-.03-.06-.06-.03-.03-.06-.05-.09-.09-.03-.03-.06-.06-.09-.09-.03-.03-.05-.06-.06-.08l-.03,.07s-.02,.04-.03,.07l-.03,.09-.03,.09s-.02,.05-.02,.06c0,0,0,.02-.01,.03l-.02,.05s-.01,.04-.02,.05-.01,.03-.01,.03h0s0,.03-.02,.04-.02,.04-.03,.06l-.03,.06s-.01,.03-.02,.03v.03s-.02,.03-.03,.05l-.02,.05s-.01,.02-.01,.03c0,0,0,.01-.01,.02l-.02,.03-.02,.03-.02,.02s-.01,.01-.03,.01-.03,0-.04-.01-.04-.02-.06-.03c-.02-.01-.04-.02-.07-.03h-.03l-.03-.03h-.02v-.02h-.05l-.03-.02h-.03l-.02-.02-.09-.04-.09-.04s-.03-.04-.03-.06,.01-.05,.02-.07c0,0,0-.03,.02-.06,.01-.03,.02-.06,.04-.1,.01-.03,.03-.07,.04-.1l.02-.06,.09-.23v-.02l.02-.04v-.04l.02-.02,.02-.04,.02-.05,.03-.06s.03-.06,.04-.09c.02-.03,.03-.06,.04-.09,.01-.03,.02-.05,.03-.06,0,0,0-.02,0-.04s0-.03,.01-.04h0v-.02c.03-.05,.06-.11,.08-.17,.03-.06,.05-.13,.08-.19s.06-.13,.09-.18c.03-.06,.07-.11,.1-.16,0,0,.02-.02,.03-.02s.03,0,.04,0Z"/></g><g class="cls-43"><path class="cls-63" d="M176.23,148.99s.03,.01,.04,.03c.01,.01,.02,.02,.03,.03h.01l.02,.03,.02,.02h0l.02,.02h0v.02h.02l.02,.03,.02,.02h.01v.02h.03v.02h.03v.03s.02,.01,.02,.01h0l.02,.02,.02,.02h0s.04,.05,.05,.07,.04,.04,.05,.06h.01v.02h.02v.02h.02v.02l.02,.02,.02,.02v.02l.03,.02s.01,.01,.02,.02h.02s.02,.02,.02,.03v.02h.02l.02,.04,.02,.03,.02,.02,.02,.02,.02,.02h.01s.01,.02,.01,.02h0v.02s.05,.04,.08,.07c.02,.02,.05,.05,.07,.07,.02,.03,.05,.05,.07,.08,.02,.03,.04,.06,.06,.09,.02,.03,.03,.05,.04,.07,.01,.02,.02,.03,.03,.04,0,.01,.01,.02,.02,.03l.02,.02,.03,.03s.03,.03,.05,.05h0l.02,.03,.02,.02h.01v.02h.04l.02,.02,.16-.39v-.02l.02-.03v-.04l.02-.02,.07-.16h.06l.38,.17s.02,.02,.03,.02c.01,0,.02,.01,.02,.02s0,.01,0,.02c0,0,0,.02-.01,.04-.02,.04-.03,.08-.06,.11-.02,.04-.04,.07-.06,.11l-.44,1.02-.02,.04s-.01,.02-.02,.03c0,0-.02,0-.03,0s-.02-.01-.04-.02c-.02-.02-.04-.03-.05-.04,0-.01-.02-.02-.02-.01-.02-.02-.05-.04-.08-.07-.03-.02-.05-.05-.08-.08-.03-.03-.05-.05-.07-.08-.02-.03-.04-.05-.05-.07h-.02l-.12-.17h0s-.02,0-.02,0-.02-.02-.03-.03c0-.01-.02-.02-.03-.04,0-.01-.01-.02-.02-.02-.04-.03-.08-.07-.11-.11s-.08-.08-.11-.11h-.01l-.04-.06-.06-.07-.07-.08s-.05-.05-.07-.08-.04-.05-.05-.07c-.02-.02-.03-.04-.03-.05,0,0-.02-.02-.04-.04-.02-.02-.04-.04-.07-.06-.02-.02-.04-.04-.06-.07-.02-.02-.03-.04-.04-.05l-.02,.05s-.01,.03-.02,.05l-.03,.07-.02,.07s-.01,.04-.02,.05c0,0,0,.01,0,.02s-.01,.03-.02,.04l-.02,.04v.02h-.01v.03l-.03,.04s-.01,.03-.02,.04,0,.02-.01,.02v.02l-.02,.04v.04l-.02,.02v.02l-.03,.02-.02,.02h-.01s0,.02-.02,.02c0,0-.02,0-.03,0s-.03-.01-.04-.02c-.02,0-.03-.02-.05-.02h-.02l-.02-.02h-.02v-.02h-.05l-.02-.02h-.02l-.07-.03-.07-.03s-.02-.03-.02-.04c0-.02,0-.03,.02-.05,0,0,0-.02,.01-.04l.03-.07s.02-.05,.03-.07l.02-.04,.07-.16v-.04l.02-.03v-.02l.02-.03,.02-.04,.02-.04,.03-.07,.03-.07s.02-.04,.02-.04c0,0,0-.02,0-.03v-.03h.01v-.02s.04-.08,.06-.13c.02-.05,.04-.09,.06-.14s.04-.09,.06-.13c.02-.04,.05-.08,.08-.11,0,0,.01-.01,.02-.02,0,0,.02,0,.03,0Z"/></g></g><g><path class="cls-36" d="M168.77,129.24c-.37-.18-.91,.18-1.22,.81-.31,.63-.26,1.28,.1,1.46,.37,.18,.91-.18,1.22-.81,.31-.63,.26-1.28-.1-1.46Z"/><path class="cls-36" d="M164.17,139.92c-.39-.13-.88,.31-1.1,.97-.22,.66-.08,1.31,.31,1.43,.39,.13,.88-.31,1.1-.97,.22-.66,.08-1.31-.31-1.43Z"/><path class="cls-55" d="M169.96,144.72c.04-.1,.11-.18,.21-.23,.75-.39,1.37-1.48,1.42-2.54,.01-.24,.21-.43,.44-.43,.23,0,.4,.2,.39,.44-.07,1.37-.88,2.76-1.91,3.3-.21,.11-.45,.02-.55-.19-.05-.11-.05-.24,0-.35Z"/><path class="cls-55" d="M175.13,132.21c.05-.11,.13-.2,.25-.25,.22-.08,.45,.03,.52,.25,.35,1.1-.06,2.65-.98,3.68-.16,.18-.42,.19-.59,.04-.16-.16-.17-.43,0-.61,.71-.79,1.04-1.99,.79-2.8-.03-.1-.02-.21,.01-.31Z"/><path class="cls-72" d="M166.98,137.05s.06-.07,.11-.06c.32,.07,.62-.08,.75-.4,.13-.32,.03-.65-.24-.81-.04-.03-.06-.08-.03-.13,.03-.04,.08-.06,.13-.03,.36,.21,.49,.64,.32,1.05-.17,.4-.55,.61-.97,.51-.05-.01-.08-.06-.07-.11h0Z"/><path class="cls-72" d="M168.5,139.48c-.74,.08-1.35,.56-1.62,1.25-.13,.33-.18,.68-.13,1.01,.06,.34,.23,.74,.37,.93,.02,.03,.03,.06,.06,.09,.1,.11,.27,.13,.38,.03,.03-.02,.05-.05,.07-.09,.04-.09,.03-.21-.04-.29-.33-.39-.41-.96-.21-1.48,.2-.53,.64-.86,1.18-.92,.15-.02,.25-.15,.24-.3-.02-.15-.15-.25-.3-.24Z"/><path class="cls-72" d="M171.87,131.42c-.74,.08-1.35,.56-1.62,1.25-.13,.33-.18,.68-.13,1.01,.06,.34,.23,.74,.37,.93,.02,.03,.03,.06,.06,.09,.1,.11,.27,.13,.38,.03,.03-.02,.05-.05,.07-.09,.04-.09,.03-.21-.04-.29-.33-.39-.41-.96-.21-1.48,.2-.53,.64-.86,1.18-.92,.15-.02,.25-.15,.24-.3-.02-.15-.15-.25-.3-.24Z"/><g><circle class="cls-90" cx="164.72" cy="134.96" r="1.68"/><ellipse class="cls-70" cx="163.81" cy="134.54" rx="1.22" ry=".55" transform="translate(-23.42 233.94) rotate(-67.36)"/></g></g></g><g><g><g><path class="cls-52" d="M145.11,74.85c-1.22,1.21-3.15,1.22-4.09,.48-.94-.75-.43-2.03,.57-3.3,1.01-1.27,2.44-1.52,3.52-.94,1.45,.77,1.14,2.63,0,3.76Z"/><path class="cls-68" d="M143.59,74.41c-.61,.45-1.39,.38-1.75-.15-.35-.53-.14-1.32,.47-1.77,.61-.45,1.39-.38,1.75,.15,.35,.53,.14,1.32-.47,1.77Z"/></g><g><path class="cls-52" d="M125,66.46c0,1.72,1.35,3.1,2.54,3.24,1.19,.14,1.75-1.12,1.94-2.73,.19-1.61-.64-2.81-1.81-3.17-1.57-.49-2.67,1.04-2.67,2.65Z"/><path class="cls-68" d="M126.39,67.24c.11,.75,.71,1.26,1.33,1.14,.62-.12,1.04-.83,.93-1.58-.11-.75-.71-1.26-1.33-1.14-.62,.12-1.04,.83-.93,1.58Z"/></g></g><path class="cls-42" d="M147.45,67.79c-2.51,6.07-7.62,7.15-13.2,4.85-5.57-2.31-8.53-6.73-6.02-12.8,2.51-6.07,7.18-5.79,12.76-3.48,5.57,2.3,8.97,5.36,6.46,11.43Z"/><path class="cls-52" d="M145.13,69.31c-2.94,7.11-7.64,8.92-12.37,6.96-4.72-1.95-6.86-6.59-3.92-13.7,2.94-7.11,6.49-5.87,11.21-3.91,4.72,1.95,8.02,3.54,5.07,10.65Z"/><path class="cls-69" d="M141.29,73.42c-.13,.37-.75,.49-1.39,.27-.64-.22-1.05-.7-.92-1.07,.13-.37,.75-.49,1.39-.27,.64,.22,1.05,.7,.92,1.07Z"/><path class="cls-69" d="M130.89,69.23c-.18,.35-.81,.38-1.41,.08-.6-.31-.94-.84-.76-1.19,.18-.35,.81-.38,1.41-.08,.6,.31,.94,.84,.76,1.19Z"/><g><path class="cls-79" d="M134.39,66.28c.23,1.13-.26,2.06-.94,2.2-1.03,.21-2.97-.43-3.32-1.52-.35-1.06,.59-2.33,1.95-2.46,1.19-.12,2.1,.69,2.32,1.78Z"/><path class="cls-85" d="M131,64.55c1.44-.99,3.31,.35,3.39,1.77-.23-1.13-1.22-1.87-2.32-1.76-.68,.07-1.31,.44-1.67,.99-.29,.44-.41,1.02-.27,1.47-.23-.35-.19-1.74,.87-2.47Z"/><path class="cls-29" d="M133.91,66.77c-.01,.71-.6,1.27-1.31,1.26-.71-.01-1.27-.6-1.26-1.31,.01-.71,.6-1.27,1.31-1.26,.71,.01,1.27,.6,1.26,1.31Z"/><path class="cls-26" d="M133.86,66.63c0,.2-.17,.35-.36,.35s-.35-.17-.35-.36c0-.2,.17-.35,.36-.35,.2,0,.35,.17,.35,.36Z"/></g><g><path class="cls-79" d="M138.64,68.07c-.96,.63-1.29,1.63-.91,2.21,.57,.88,2.38,1.82,3.42,1.31,1-.49,1.25-2.04,.39-3.11-.75-.93-1.96-1.02-2.9-.41Z"/><path class="cls-85" d="M142.24,69.28c-.3-1.72-2.57-2.12-3.64-1.18,.96-.63,2.19-.44,2.88,.43,.43,.53,.6,1.24,.46,1.89-.11,.52-.45,1.01-.86,1.21,.41-.08,1.38-1.08,1.16-2.35Z"/><path class="cls-29" d="M140.82,69.68c-.01,.71-.6,1.27-1.31,1.26-.71-.01-1.27-.6-1.26-1.31,.01-.71,.6-1.27,1.31-1.26,.71,.01,1.27,.6,1.26,1.31Z"/><path class="cls-26" d="M140.77,69.53c0,.2-.17,.35-.36,.35-.2,0-.35-.17-.35-.36,0-.2,.17-.35,.36-.35,.2,0,.35,.17,.35,.36Z"/></g><path class="cls-88" d="M131.75,61.6c.09,.04,.2,.05,.3,.02,.78-.24,1.94,.09,2.7,.77,.17,.15,.43,.15,.59,0,.15-.16,.14-.41-.03-.56-.98-.89-2.48-1.3-3.54-.96-.22,.07-.33,.29-.25,.5,.04,.11,.13,.2,.24,.24Z"/><path class="cls-88" d="M143.78,66.66c.11,.04,.23,.05,.34,0,.21-.09,.29-.33,.19-.53-.51-.99-1.84-1.78-3.17-1.86-.23-.01-.42,.15-.43,.37,0,.22,.18,.41,.41,.42,1.02,.06,2.07,.66,2.44,1.39,.05,.09,.13,.16,.22,.2Z"/><path class="cls-84" d="M134.63,69.76s.09,0,.11-.04c.17-.27,.48-.36,.79-.23,.31,.13,.46,.42,.38,.72-.01,.05,.02,.1,.06,.11,.05,.01,.1-.02,.11-.06,.1-.39-.1-.77-.49-.94-.39-.16-.79-.04-1.01,.3-.03,.04-.01,.1,.03,.13h.01Z"/><path class="cls-42" d="M130.96,54.22c2.27-1.3,4.63-.01,5.51,.76-.05-1.1-.53-1.35-1.18-2.12-.68-.82,.95-1.72,1.76-.62,.74,1,.14,2.53-.23,3.04,.89-.86,2.22-1.52,3.75-1.75,2.93-.45,5.47,.79,5.68,2.78,.05,.52-.06,1.04-.31,1.53,.26-.06,.53-.1,.82-.09,1.23,.05,2.18,.86,2.1,1.8-.04,.49-.34,.91-.79,1.21,.37,.19,.72,.46,1.03,.81,1.05,1.2,1.21,2.82,.36,3.63-.32,.3-.73,.45-1.18,.45-.04,.22-.08,.45-.13,.68-.49,2.13-1.35,3.76-1.93,3.64-.42-.09-.57-1.07-.44-2.41-.77-.32-1.48-1.15-1.83-2.28-.33-1.04-.27-2.08,.07-2.84-.93,.78-2.63,.67-4.08-.34-.61-.42-1.08-.95-1.41-1.5-.09-.02-.19-.04-.28-.07-.02,.54-.19,.97-.53,1.17-.7,.41-1.81-.32-2.48-1.62-.63-1.23-.49-2.07-.41-2.56-.45-.31-1.04,1.61-2.19,2.36-1.89,1.24-3.77,1.44-4.4,.36-.1-.18,.01-.46,.25-.78-.05-.04-.26-.14-.29-.19-.75-1.49,.49-3.75,2.76-5.05Z"/><g><path class="cls-62" d="M136.42,75.05c-.11-.18-.27-.36-.47-.53-.02-.02-.05-.04-.07-.06-.36-.3-.83-.59-1.35-.82-.36-.16-.76-.29-1.16-.39-.11-.02-.21-.04-.32-.06-.48-.08-.98-.11-1.45-.05-.38,.05-.76,.15-1.1,.32,0,0,.54-1.26,1.95-1.75,.56-.2,1.27-.28,2.13-.1,1.42,.29,1.88,1.14,1.99,1.92,.09,.68-.09,1.32-.15,1.51Z"/><g class="cls-21"><path class="cls-62" d="M134.53,73.64c-.36-.16-.76-.29-1.16-.39-.11-.02-.21-.04-.32-.06-.13-.72,.39-1.13,.97-.97,.72,.2,.94,.87,.51,1.42Z"/></g><path class="cls-28" d="M135.95,74.53c-.6-.54-1.56-1.03-2.58-1.27,.96-.83,1.42,.17,1.71,.32,.29,.16,1.05,.01,.87,.94Z"/><path class="cls-26" d="M136.57,73.54c-.78-.71-2.11-1.67-4.11-1.82,.56-.2,1.27-.28,2.13-.1,1.42,.29,1.88,1.14,1.99,1.92Z"/><g class="cls-17"><path class="cls-28" d="M134.28,73.02c-.23-.09-.6,.11-.59,.2,.01,.09,.98,.35,1.23,.48,.26,.13,.79,.61,.89,.57,.1-.04,.13-.27-.08-.4-.21-.13-.48-.08-.74-.24-.26-.16-.41-.49-.71-.61Z"/></g><path class="cls-37" d="M136.44,75.17s-.06-.01-.09-.04c-.01-.01-.03-.03-.04-.04h0l-.03-.05-.06-.08c-.04-.05-.08-.1-.13-.15-.09-.1-.19-.19-.29-.27-.2-.17-.43-.32-.65-.46-.46-.27-.96-.48-1.47-.63-.51-.15-1.05-.23-1.58-.23-.53,0-1.06,.11-1.54,.34h0c-.06,.03-.12,0-.15-.05-.01-.03-.01-.06,0-.09,.17-.38,.4-.71,.68-1,.28-.29,.62-.54,.98-.72,.18-.09,.37-.17,.57-.22,.2-.06,.4-.09,.6-.12,.41-.04,.82-.02,1.21,.04,.4,.07,.8,.18,1.16,.39,.36,.21,.69,.51,.87,.89,.19,.38,.26,.8,.26,1.2,0,.2-.03,.41-.06,.6-.02,.1-.04,.2-.06,.29l-.04,.14-.02,.07v.02s0,0-.02,.03c-.02,.05-.07,.09-.1,.1Zm-.03-.22s-.07,0-.07,.03c0,.02,0,0,0,0v-.02l.03-.07,.04-.14c.03-.09,.05-.18,.07-.28,.04-.19,.06-.38,.07-.57,0-.38-.06-.77-.23-1.12-.17-.35-.46-.63-.8-.82-.34-.2-.72-.31-1.1-.38-.76-.13-1.58-.07-2.27,.29-.34,.18-.66,.41-.92,.69-.26,.28-.48,.61-.62,.95l-.15-.15h0c.51-.25,1.08-.35,1.63-.36,.56,0,1.11,.08,1.65,.23,.53,.15,1.05,.37,1.53,.65,.24,.14,.47,.3,.69,.48,.11,.09,.21,.19,.31,.29,.05,.05,.1,.11,.14,.16l.07,.09,.03,.04h0s-.01,0-.02,0c-.02-.01-.05,0-.07,0Z"/></g></g></g><path class="cls-86" d="M160.77,15.9c-55.35-24.53-120.33,.54-144.86,55.89-24.53,55.35,.54,120.33,55.89,144.86,55.35,24.53,120.33-.54,144.86-55.89,24.53-55.35-.54-120.33-55.89-144.86ZM76.86,205.25C27.8,183.51,5.58,125.91,27.32,76.86,49.06,27.8,106.66,5.58,155.71,27.32c49.05,21.74,71.28,79.34,49.54,128.39-21.74,49.05-79.34,71.28-128.39,49.54Z"/><circle class="cls-23" cx="116.88" cy="117.84" r="16.33" transform="translate(-38.21 176.95) rotate(-66.1)"/><circle class="cls-86" cx="116.28" cy="116.28" r="16.33" transform="translate(-37.14 175.48) rotate(-66.1)"/><circle class="cls-26" cx="116.28" cy="116.28" r="6.46"/></g><g><path class="cls-56" d="M116.6,13.32c.1,2.41-1.77,4.44-4.18,4.54-2.41,.1-4.44-1.77-4.54-4.18-.1-2.41,1.77-4.44,4.18-4.54,2.41-.1,4.44,1.77,4.54,4.18Z"/><path class="cls-24" d="M114.97,12.23c.1,2.41-1.77,4.44-4.18,4.54-2.41,.1-4.44-1.77-4.54-4.18-.1-2.41,1.77-4.44,4.18-4.54,2.41-.1,4.44,1.77,4.54,4.18Z"/><path class="cls-6" d="M120.4,12.01c.22,5.4-3.98,9.96-9.39,10.18-5.4,.22-9.96-3.98-10.18-9.39-.22-5.4,3.98-9.96,9.39-10.18,5.4-.22,9.96,3.98,10.18,9.39Z"/></g><g><path class="cls-56" d="M151.8,19.68c-.73,2.3-3.19,3.56-5.48,2.83-2.3-.73-3.56-3.19-2.83-5.48,.73-2.3,3.19-3.56,5.48-2.83,2.3,.73,3.56,3.19,2.83,5.48Z"/><path class="cls-24" d="M150.65,18.1c-.73,2.3-3.19,3.56-5.48,2.83-2.3-.73-3.56-3.19-2.83-5.48,.73-2.3,3.19-3.56,5.48-2.83,2.3,.73,3.56,3.19,2.83,5.48Z"/><path class="cls-8" d="M155.82,19.75c-1.64,5.15-7.15,8-12.3,6.36-5.15-1.64-8-7.15-6.36-12.3,1.64-5.15,7.15-8,12.3-6.36,5.15,1.64,8,7.15,6.36,12.3Z"/></g><g><path class="cls-56" d="M182.71,37.69c-1.47,1.91-4.21,2.26-6.12,.79-1.91-1.47-2.26-4.21-.79-6.12,1.47-1.91,4.21-2.26,6.12-.79,1.91,1.47,2.26,4.21,.79,6.12Z"/><path class="cls-24" d="M182.17,35.82c-1.47,1.91-4.21,2.26-6.12,.79-1.91-1.47-2.26-4.21-.79-6.12,1.47-1.91,4.21-2.26,6.12-.79,1.91,1.47,2.26,4.21,.79,6.12Z"/><path class="cls-11" d="M186.47,39.13c-3.3,4.28-9.45,5.07-13.74,1.77-4.28-3.3-5.07-9.45-1.77-13.74,3.3-4.28,9.45-5.07,13.74-1.77,4.28,3.3,5.07,9.45,1.77,13.74Z"/></g><g><path class="cls-56" d="M205.6,65.19c-2.04,1.29-4.73,.68-6.02-1.35-1.29-2.04-.68-4.73,1.35-6.02,2.04-1.29,4.73-.68,6.02,1.35,1.29,2.04,.68,4.73-1.35,6.02Z"/><path class="cls-24" d="M205.73,63.25c-2.04,1.29-4.73,.68-6.02-1.35-1.29-2.04-.68-4.73,1.35-6.02,2.04-1.29,4.73-.68,6.02,1.35,1.29,2.04,.68,4.73-1.35,6.02Z"/><path class="cls-13" d="M208.63,67.83c-4.57,2.89-10.62,1.53-13.51-3.04-2.89-4.57-1.53-10.62,3.04-13.51,4.57-2.89,10.62-1.53,13.51,3.04,2.89,4.57,1.53,10.62-3.04,13.51Z"/></g><g><path class="cls-56" d="M217.69,98.86c-2.35,.51-4.68-.98-5.19-3.33-.51-2.35,.98-4.68,3.33-5.19,2.35-.51,4.68,.98,5.19,3.33,.51,2.35-.98,4.68-3.33,5.19Z"/><path class="cls-24" d="M218.48,97.08c-2.35,.51-4.68-.98-5.19-3.33-.51-2.35,.98-4.68,3.33-5.19,2.35-.51,4.68,.98,5.19,3.33,.51,2.35-.98,4.68-3.33,5.19Z"/><path class="cls-18" d="M219.64,102.38c-5.28,1.15-10.5-2.19-11.66-7.48-1.16-5.28,2.19-10.5,7.47-11.66,5.28-1.15,10.5,2.19,11.66,7.47,1.16,5.28-2.19,10.5-7.47,11.66Z"/></g><g><path class="cls-56" d="M217.54,134.64c-2.39-.32-4.06-2.52-3.74-4.91,.32-2.39,2.52-4.06,4.91-3.74,2.39,.32,4.06,2.52,3.74,4.91-.32,2.39-2.52,4.06-4.91,3.74Z"/><path class="cls-24" d="M218.9,133.23c-2.39-.32-4.06-2.52-3.74-4.91,.32-2.39,2.52-4.06,4.91-3.74,2.39,.32,4.06,2.52,3.74,4.91-.32,2.39-2.52,4.06-4.91,3.74Z"/><path class="cls-2" d="M218.17,138.61c-5.36-.72-9.12-5.65-8.4-11.01,.72-5.36,5.65-9.12,11.01-8.4,5.36,.72,9.12,5.65,8.4,11.01-.72,5.36-5.65,9.12-11.01,8.4Z"/></g><g><path class="cls-56" d="M205.17,168.21c-2.13-1.12-2.96-3.76-1.84-5.89,1.12-2.13,3.76-2.96,5.89-1.84,2.13,1.12,2.96,3.76,1.84,5.89-1.12,2.13-3.76,2.96-5.89,1.84Z"/><path class="cls-24" d="M206.92,167.35c-2.13-1.12-2.96-3.76-1.84-5.89,1.12-2.13,3.76-2.96,5.89-1.84,2.13,1.12,2.96,3.76,1.84,5.89-1.12,2.13-3.76,2.96-5.89,1.84Z"/><path class="cls-19" d="M204.4,172.16c-4.79-2.51-6.64-8.43-4.13-13.22,2.51-4.79,8.43-6.64,13.22-4.13,4.79,2.51,6.64,8.43,4.13,13.22-2.51,4.79-8.43,6.64-13.22,4.13Z"/></g><g><path class="cls-56" d="M182.06,195.52c-1.62-1.78-1.49-4.54,.29-6.16,1.78-1.62,4.54-1.49,6.16,.29,1.62,1.78,1.49,4.54-.29,6.16-1.78,1.62-4.54,1.49-6.16-.29Z"/><path class="cls-24" d="M184,195.31c-1.62-1.78-1.49-4.54,.29-6.16,1.78-1.62,4.54-1.49,6.16,.29,1.62,1.78,1.49,4.54-.29,6.16-1.78,1.62-4.54,1.49-6.16-.29Z"/><path class="cls-3" d="M179.99,198.97c-3.64-4-3.35-10.19,.64-13.83,4-3.64,10.19-3.35,13.83,.64,3.64,4,3.35,10.19-.64,13.83-4,3.64-10.19,3.35-13.83-.64Z"/></g><g><path class="cls-56" d="M151,213.28c-.92-2.23,.15-4.78,2.38-5.69,2.23-.92,4.78,.15,5.69,2.38,.92,2.23-.15,4.78-2.38,5.69-2.23,.92-4.78-.15-5.69-2.38Z"/><path class="cls-24" d="M152.9,213.75c-.92-2.23,.15-4.78,2.38-5.69,2.23-.92,4.78,.15,5.69,2.38,.92,2.23-.15,4.78-2.38,5.69-2.23,.92-4.78-.15-5.69-2.38Z"/><circle class="cls-15" cx="156.93" cy="212.09" r="9.79"/></g><g><path class="cls-56" d="M115.74,219.35c-.1-2.41,1.77-4.44,4.18-4.54,2.41-.1,4.44,1.77,4.54,4.18,.1,2.41-1.77,4.44-4.18,4.54-2.41,.1-4.44-1.77-4.54-4.18Z"/><path class="cls-24" d="M117.36,220.43c-.1-2.41,1.77-4.44,4.18-4.54,2.41-.1,4.44,1.77,4.54,4.18,.1,2.41-1.77,4.44-4.18,4.54-2.41,.1-4.44-1.77-4.54-4.18Z"/><path class="cls-5" d="M111.94,220.65c-.22-5.4,3.98-9.96,9.39-10.18,5.4-.22,9.96,3.98,10.18,9.39,.22,5.4-3.98,9.96-9.39,10.18-5.4,.22-9.96-3.98-10.18-9.39Z"/></g><g><path class="cls-56" d="M80.53,212.99c.73-2.3,3.19-3.56,5.48-2.83,2.3,.73,3.56,3.19,2.83,5.48-.73,2.3-3.19,3.56-5.48,2.83-2.3-.73-3.56-3.19-2.83-5.48Z"/><path class="cls-24" d="M81.69,214.56c.73-2.3,3.19-3.56,5.48-2.83,2.3,.73,3.56,3.19,2.83,5.48-.73,2.3-3.19,3.56-5.48,2.83-2.3-.73-3.56-3.19-2.83-5.48Z"/><path class="cls-1" d="M76.51,212.92c1.64-5.15,7.15-8,12.3-6.36,5.15,1.64,8,7.15,6.36,12.3-1.64,5.15-7.15,8-12.3,6.36-5.15-1.64-8-7.15-6.36-12.3Z"/></g><g><path class="cls-56" d="M49.62,194.97c1.47-1.91,4.21-2.26,6.12-.79,1.91,1.47,2.26,4.21,.79,6.12-1.47,1.91-4.21,2.26-6.12,.79-1.91-1.47-2.26-4.21-.79-6.12Z"/><path class="cls-24" d="M50.17,196.85c1.47-1.91,4.21-2.26,6.12-.79,1.91,1.47,2.26,4.21,.79,6.12-1.47,1.91-4.21,2.26-6.12,.79-1.91-1.47-2.26-4.21-.79-6.12Z"/><path class="cls-10" d="M45.87,193.53c3.3-4.28,9.45-5.07,13.74-1.77,4.28,3.3,5.07,9.45,1.77,13.74-3.3,4.28-9.45,5.07-13.74,1.77-4.28-3.3-5.07-9.45-1.77-13.74Z"/></g><g><path class="cls-56" d="M26.74,167.47c2.04-1.29,4.73-.68,6.02,1.35,1.29,2.04,.68,4.73-1.35,6.02-2.04,1.29-4.73,.68-6.02-1.35-1.29-2.04-.68-4.73,1.35-6.02Z"/><path class="cls-24" d="M26.61,169.42c2.04-1.29,4.73-.68,6.02,1.35,1.29,2.04,.68,4.73-1.35,6.02-2.04,1.29-4.73,.68-6.02-1.35s-.68-4.73,1.35-6.02Z"/><path class="cls-16" d="M23.71,164.83c4.57-2.89,10.62-1.53,13.51,3.04,2.89,4.57,1.53,10.62-3.04,13.51-4.57,2.89-10.62,1.53-13.51-3.04-2.89-4.57-1.53-10.62,3.04-13.51Z"/></g><g><path class="cls-56" d="M14.64,133.8c2.35-.51,4.68,.98,5.19,3.33,.51,2.35-.98,4.68-3.33,5.19-2.35,.51-4.68-.98-5.19-3.33-.51-2.35,.98-4.68,3.33-5.19Z"/><path class="cls-24" d="M13.86,135.58c2.35-.51,4.68,.98,5.19,3.33,.51,2.35-.98,4.68-3.33,5.19-2.35,.51-4.68-.98-5.19-3.33-.51-2.35,.98-4.68,3.33-5.19Z"/><path class="cls-20" d="M12.7,130.28c5.28-1.15,10.5,2.19,11.66,7.48,1.16,5.28-2.19,10.5-7.47,11.66-5.28,1.15-10.5-2.19-11.66-7.47-1.16-5.28,2.19-10.5,7.47-11.66Z"/></g><g><path class="cls-56" d="M14.79,98.02c2.39,.32,4.06,2.52,3.74,4.91-.32,2.39-2.52,4.06-4.91,3.74-2.39-.32-4.06-2.52-3.74-4.91,.32-2.39,2.52-4.06,4.91-3.74Z"/><path class="cls-24" d="M13.44,99.43c2.39,.32,4.06,2.52,3.74,4.91-.32,2.39-2.52,4.06-4.91,3.74-2.39-.32-4.06-2.52-3.74-4.91,.32-2.39,2.52-4.06,4.91-3.74Z"/><path class="cls-12" d="M14.17,94.05c5.36,.72,9.12,5.65,8.4,11.01-.72,5.36-5.65,9.12-11.01,8.4-5.36-.72-9.12-5.65-8.4-11.01,.72-5.36,5.65-9.12,11.01-8.4Z"/></g><g><path class="cls-56" d="M27.17,64.45c2.13,1.12,2.96,3.76,1.84,5.89-1.12,2.13-3.76,2.96-5.89,1.84-2.13-1.12-2.96-3.76-1.84-5.89,1.12-2.13,3.76-2.96,5.89-1.84Z"/><path class="cls-24" d="M25.42,65.32c2.13,1.12,2.96,3.76,1.84,5.89-1.12,2.13-3.76,2.96-5.89,1.84-2.13-1.12-2.96-3.76-1.84-5.89,1.12-2.13,3.76-2.96,5.89-1.84Z"/><path class="cls-7" d="M27.94,60.51c4.79,2.51,6.64,8.43,4.13,13.22-2.51,4.79-8.43,6.64-13.22,4.13-4.79-2.51-6.64-8.43-4.13-13.22,2.51-4.79,8.43-6.64,13.22-4.13Z"/></g><g><path class="cls-56" d="M50.28,37.14c1.62,1.78,1.49,4.54-.29,6.16-1.78,1.62-4.54,1.49-6.16-.29-1.62-1.78-1.49-4.54,.29-6.16,1.78-1.62,4.54-1.49,6.16,.29Z"/><path class="cls-24" d="M48.34,37.35c1.62,1.78,1.49,4.54-.29,6.16-1.78,1.62-4.54,1.49-6.16-.29-1.62-1.78-1.49-4.54,.29-6.16,1.78-1.62,4.54-1.49,6.16,.29Z"/><path class="cls-14" d="M52.35,33.7c3.64,4,3.35,10.19-.64,13.83-4,3.64-10.19,3.35-13.83-.64-3.64-4-3.35-10.19,.64-13.83,4-3.64,10.19-3.35,13.83,.64Z"/></g><g><path class="cls-56" d="M81.34,19.38c.92,2.23-.15,4.78-2.38,5.69-2.23,.92-4.78-.15-5.69-2.38-.92-2.23,.15-4.78,2.38-5.69,2.23-.92,4.78,.15,5.69,2.38Z"/><path class="cls-24" d="M79.44,18.92c.92,2.23-.15,4.78-2.38,5.69-2.23,.92-4.78-.15-5.69-2.38-.92-2.23,.15-4.78,2.38-5.69,2.23-.92,4.78,.15,5.69,2.38Z"/><circle class="cls-9" cx="75.4" cy="20.57" r="9.79"/></g></g></g></g></g></svg>