<?xml version="1.0" encoding="UTF-8"?><svg xmlns="http://www.w3.org/2000/svg" viewBox="0 0 111.91 111.91"><defs><style>.cls-1{fill:#fff;}.cls-2,.cls-3{fill:#f27053;}.cls-4{fill:#751d0e;}.cls-5{fill:#49130a;}.cls-6{fill:#ffb600;}.cls-7{opacity:.28;}.cls-8{isolation:isolate;}.cls-9{fill:#994710;}.cls-10{mix-blend-mode:multiply;opacity:.5;}.cls-10,.cls-11{fill:#b55649;}.cls-12{fill:#351601;}.cls-3{mix-blend-mode:screen;opacity:.2;}.cls-13{fill:none;}.cls-14{fill:#461d14;}.cls-15{fill:#fcfeff;}.cls-16{fill:#cc6a1f;}.cls-17{fill:#c1411a;}</style></defs><g class="cls-8"><g id="Layer_2"><g id="Capa_1"><g><rect class="cls-13" width="111.91" height="111.91" rx="12" ry="12"/><g><path class="cls-5" d="M95.99,58.43c-.06-1.81-1.73-3.35-4.25-4.27,.47-1.13,.72-2.36,.68-3.66-.16-4.96-4.43-8.84-9.54-8.67-1.26,.04-2.45,.33-3.53,.8,.03-.71-.14-1.43-.53-2.07-1.07-1.74-3.4-2.24-5.2-1.12-1.07,.67-1.71,1.76-1.82,2.9-.32-1.88-9.59,.82-4.67,5.4-.97,.4-1.64,1.07-1.77,1.91-.2,1.35,1.08,2.7,3,3.35-.57,.66-.97,1.49-1.11,2.42-.34,2.27,.97,4.4,3.02,5.18-.91,2.03-.85,4.03,.33,5.13,1.13,1.05,3.02,1,4.89,.06-.4,.76-.62,1.6-.59,2.5,.09,2.91,2.72,5.18,5.94,5.25-.59,1.04-.59,2.65,.15,4.17,1.02,2.11,3.02,3.26,4.48,2.55,1.39-.67,1.77-2.76,.93-4.78,.87,.21,1.81,.09,2.61-.41,1.61-1,2.09-3.16,1.13-4.87,2.35,.16,4.33-.81,4.55-2.31,.17-1.14-.72-2.29-2.17-3.01,.35-.75,.51-1.58,.46-2.41,1.89-1.06,3.04-2.5,2.99-4.05Z"/><path class="cls-16" d="M15.23,70.78c-.02,5.91,3.08,10.48,5.99,10.71,2.91,.23,4.28-4.24,4.77-9.8,.49-5.56-1.48-10.27-4.39-10.49-3.98-.3-6.35,4.02-6.37,9.57Z"/><path class="cls-9" d="M18.71,74.06c.61,2.36,2.34,3.84,3.86,3.29,1.52-.54,2.25-2.9,1.64-5.26-.61-2.36-2.34-3.84-3.85-3.29-1.52,.54-2.25,2.9-1.64,5.26Z"/><path class="cls-5" d="M22.1,57.08c-2.78,20.34,8.93,31.25,27.08,33.7,18.15,2.45,34.92-4.72,35.49-25.25,.55-19.72-17.29-27.11-28.03-29.32-17.93-3.69-31.75,.52-34.54,20.87Z"/><path class="cls-16" d="M27.09,47.87c-.77,.54-1.22,1.41-1.3,3.48-.6,15.72-4.11,19.95-5.12,26.69-1.23,8.25,4.95,17.12,12.81,19.43,6.32,1.86,27.88,5.24,39.43-12.11,5.21-7.83,7.76-24.56,6.9-28.03-2.91-11.72-9.16-11.42-24.08-13.44-13.95-1.88-19.91-2.2-28.64,3.97Z"/><path class="cls-5" d="M72.19,67.44c-1.89,5.94-2.97,10.92,.79,14.91,4.4,4.65,10.92-8.49,12.24-18.16,1.32-9.67-5.39-19.61-17.77-20.42-6.38-.42,9.81,7.73,4.73,23.67Z"/><path class="cls-16" d="M82.85,84.37c-3.74,5.98-8.74,8.49-13.23,7.57-4.64-.95-4.15-7.02-1.97-12.92,2.18-5.9,7.34-8.63,11.98-7.69,5.15,1.04,6.56,7.71,3.23,13.03Z"/><path class="cls-4" d="M37.2,77.47c.12,.02,.24-.06,.28-.18,.27-.87,1.05-1.35,1.98-1.22,.94,.13,1.58,.81,1.58,1.7,0,.14,.12,.26,.26,.26,.14,0,.26-.12,.26-.26,0-1.14-.84-2.04-2.02-2.2-1.18-.16-2.2,.48-2.54,1.58-.04,.14,.03,.28,.17,.32h.04Z"/><g><path class="cls-6" d="M80.07,40.21c7.22,8.88,6.65,20.27,3.94,31.28-1.19-17.85-5.18-27.12-12.5-32.86,.03-.7,7.8,.65,8.56,1.58Z"/><path class="cls-6" d="M72.59,38.68c-7.14,.27-14.79-16.48-3.99-25.81,9.77,10.55,8.47,19.43,3.99,25.81Z"/><path class="cls-7" d="M70.9,35.96c6.61-.39-.55-9.11-1.21-9.89-3.46,3.59-2.91,10.14,1.21,9.89Z"/><path class="cls-6" d="M72.4,36.31c3.84,9.78,27.33,10.3,25.83-11.08-13.39,4.62-23.87,4.22-25.83,11.08Z"/><path class="cls-7" d="M74.62,36.4c1.14-2.73,5.99-2.64,12.19-1.67-.83,3.14-9.79,7.17-12.19,1.67Z"/><path class="cls-6" d="M71.56,39.06c-1.47-.87-1.96-2.85-1.09-4.42,.87-1.57,2.76-2.14,4.23-1.27,1.47,.87,1.96,2.85,1.09,4.42-.87,1.57-2.76,2.14-4.23,1.27Z"/></g><path class="cls-5" d="M81.62,56.47c.24-2.17-1.03-4.16-2.98-4.94,.9-.14,1.76-.54,2.47-1.21,1.86-1.75,1.94-4.67,.18-6.52-1.15-1.2-2.79-1.65-4.31-1.34,.09-.27-4.05-5.12-7.89-5.29,.95-.68,1.46-1.83,1.57-2.82,.39-3.57-2.75-6.84-7.01-7.3-2.74-.29-5.26,.65-6.83,2.3-1.21-1.18-2.83-1.99-4.68-2.19-2.18-.23-4.24,.43-5.78,1.68-.57-1.75-1.62-3.3-3.15-4.4-4.39-3.18-11.03-1.59-14.82,3.56-.6,.82-1.09,1.67-1.48,2.55-.5-.36-1.1-.6-1.77-.67-1.97-.21-3.74,1.13-3.94,3.01-.08,.75,.1,1.47,.47,2.07-1.99,.38-3.92,1.54-5.29,3.4-2.66,3.61-2.19,8.44,1.05,10.79,.39,.28,.81,.52,1.24,.7,.03,.6,.13,1.19,.27,1.74-.39-.22-.83-.36-1.31-.41-1.97-.21-3.76,1.28-3.98,3.34-.22,2.05,1.19,3.89,3.17,4.1,.5,.05,.98,0,1.43-.15,.05,.39,.18,.76,.4,1.09,.99,1.48,3.36,1.65,5.29,.37,1.33-.88,2.11-2.22,2.13-3.45,2.62-.73,4.75-3.42,5.12-6.83,.01-.1,.01-.19,.02-.29,.58,.71,1.45,1.21,2.46,1.31,1.83,.2,3.47-.94,3.87-2.6,.16,.14,.32,.28,.5,.41,3.17,2.3,7.87,1.26,10.51-2.32,.34-.46,.62-.94,.86-1.43-.08,1.73,.61,3.39,2.01,4.41,2.29,1.66,5.63,.99,7.61-1.45,1.17,1.04,2.92,1.67,4.87,1.57,1.55-.08,2.92-.62,3.95-1.42-.15,.85-.14,1.76,.09,2.67,.56,2.27,2.22,3.95,4.16,4.47-.03,.14-.05,.29-.07,.44-.14,1.29,.25,2.51,.99,3.45-.99-.16-1.97,.12-2.6,.85-1.04,1.21-.72,3.17,.72,4.4,1.44,1.22,3.45,1.24,4.49,.03,.83-.96,.79-2.41,0-3.58,.22,.05,.44,.1,.67,.12,2.65,.28,5.03-1.62,5.31-4.25Z"/><g><path class="cls-15" d="M35.63,67.32c1.34,3.14,.67,6.29-1.02,7.28-2.55,1.5-8.06,1.25-9.71-1.67-1.6-2.83,0-7.35,3.48-8.9,3.05-1.36,5.96,.25,7.25,3.28Z"/><path class="cls-4" d="M25.63,65.08c3.12-4.13,8.9-1.77,10.04,2.34-1.33-3.13-4.43-4.47-7.24-3.21-1.74,.78-3.13,2.4-3.71,4.34-.47,1.55-.39,3.37,.27,4.54-.84-.82-1.66-4.97,.64-8.01Z"/><path class="cls-14" d="M34.62,69.17c.43,2.1-.73,4.26-2.6,4.83-1.87,.56-3.73-.69-4.16-2.79-.43-2.1,.73-4.26,2.6-4.83,1.87-.56,3.73,.69,4.16,2.79Z"/><path class="cls-1" d="M34.39,68.78c.12,.58-.2,1.18-.72,1.34-.52,.16-1.04-.19-1.16-.77-.12-.58,.2-1.18,.72-1.34,.52-.16,1.04,.19,1.16,.77Z"/></g><g><path class="cls-15" d="M49.34,69.33c-2.35,2.64-2.51,5.86-.92,7.3,2.39,2.16,8.53,3.48,11.18,1.14,2.56-2.27,2.07-7.07-1.33-9.54-2.98-2.17-6.64-1.45-8.92,1.11Z"/><path class="cls-4" d="M61,70c-2.28-4.85-9.32-4.21-11.74-.58,2.35-2.64,6.14-3.05,8.89-1.05,1.7,1.24,2.78,3.19,2.87,5.22,.08,1.62-.51,3.35-1.58,4.29,1.16-.56,3.22-4.31,1.55-7.88Z"/><path class="cls-14" d="M58.31,72.43c.53,2.12-.75,4.26-2.87,4.79s-4.26-.75-4.79-2.87c-.53-2.12,.75-4.26,2.87-4.79,2.12-.53,4.26,.75,4.79,2.87Z"/><path class="cls-1" d="M58.04,72.04c.15,.59-.21,1.18-.8,1.33-.59,.15-1.18-.21-1.33-.8-.15-.59,.21-1.18,.8-1.33,.59-.15,1.18,.21,1.33,.8Z"/></g><path class="cls-9" d="M76.78,83.42c-.96,2.57-4.46,4.14-6.54,2.89-.81-.49,2.76-9.41,4.17-9.1,2.37,.54,3.34,3.63,2.38,6.2Z"/><path class="cls-12" d="M26.16,61.52c-.25-.06-.49-.17-.68-.35-.27-.25-.43-.59-.43-.96,0-.37,.15-.71,.42-.98,2.35-2.27,6.82-3.18,10.5-2.15,.77,.21,1.2,.97,.97,1.69-.11,.35-.37,.64-.71,.82-.35,.18-.76,.2-1.11,.11-2.69-.74-6-.1-7.59,1.43-.24,.24-.58,.39-.94,.42-.15,0-.29,0-.43-.03Z"/><path class="cls-12" d="M63.99,64.59c-1.82-2.91-6.18-5.16-10.36-5.33-.42-.02-.8,.11-1.08,.36-.28,.25-.43,.59-.41,.97,.03,.45,.28,.85,.67,1.12,.27,.19,.61,.31,.96,.33,3.04,.13,6.27,1.73,7.52,3.72,.19,.31,.5,.56,.87,.69,.42,.16,.89,.15,1.26-.02,.36-.15,.62-.43,.73-.78,.11-.35,.05-.73-.16-1.07Z"/><path class="cls-17" d="M62.95,83.92c-.15,1.35-2.14,2.24-4.46,1.99-2.32-.25-4.08-1.55-3.93-2.9,.15-1.35,2.14-2.24,4.46-1.99,2.32,.25,4.08,1.55,3.93,2.9Z"/><path class="cls-17" d="M27.16,78.09c-.25,1.18-1.89,1.84-3.66,1.47-1.77-.37-3.01-1.63-2.76-2.82,.25-1.18,1.89-1.84,3.66-1.47,1.77,.37,3.01,1.63,2.76,2.82Z"/><g><path class="cls-11" d="M29.4,86.9s3.2-3.76,9.11-3.4c3.78,.23,7.93,1.75,11.57,5.08-5.94-.04-6.54,3.18-11.62,2.72-5.08-.46-9.05-4.4-9.05-4.4Z"/><path class="cls-10" d="M35.83,87.65c-1.62-1.68,1.08-3.85,4.74-2.21,3.66,1.65-.96,3.96-.96,3.96l-3.78-1.76Z"/><path class="cls-4" d="M29.1,86.92c0-.06,.02-.13,.05-.18l.04-.05,.02-.02,.03-.04,.06-.07,.12-.14c.08-.09,.17-.19,.25-.27,.17-.18,.35-.35,.54-.51,.37-.33,.77-.63,1.19-.9,.84-.53,1.74-.98,2.7-1.28,.96-.29,1.95-.47,2.95-.53,1-.06,2,.03,2.97,.18,1.95,.3,3.84,.92,5.57,1.84,1.75,.89,3.3,2.11,4.67,3.47h.01c.1,.11,.1,.26,0,.35-.05,.05-.12,.07-.18,.07h0c-1.85,.15-3.57,.61-5.15,1.47-.8,.42-1.63,.91-2.57,1.24-.94,.35-1.97,.53-2.97,.53-1,.02-1.99-.15-2.94-.4-.95-.26-1.87-.6-2.73-1.05-.86-.45-1.67-.98-2.43-1.55-.38-.29-.74-.61-1.09-.93-.18-.16-.35-.33-.52-.5l-.24-.26-.12-.14-.06-.07-.03-.03-.02-.02h0s-.03-.04-.05-.07c-.03-.05-.05-.11-.05-.15Zm.41-.02s-.03-.08-.02-.06l.02,.02,.03,.03,.06,.06,.13,.12,.26,.23c.17,.15,.35,.31,.53,.45,.36,.29,.73,.58,1.11,.84,.76,.53,1.56,1,2.4,1.4,1.67,.81,3.5,1.34,5.37,1.35,.93,0,1.86-.14,2.74-.45,.88-.3,1.7-.75,2.55-1.14,.84-.4,1.72-.72,2.63-.91,.91-.19,1.84-.26,2.77-.26h0c-1.42-1.27-3-2.38-4.72-3.21-1.71-.83-3.55-1.41-5.44-1.68-1.88-.28-3.82-.21-5.64,.35-.91,.28-1.78,.66-2.59,1.15-.41,.24-.8,.51-1.17,.81-.19,.15-.37,.3-.54,.46l-.26,.24-.12,.13-.06,.06-.03,.03s-.02,.07,0-.04Z"/><path class="cls-2" d="M43.64,90.25c-.97,.38-1.69,.9-2.25,1.5-2.39,2.54-1.99,6.38-6.55,5.31-2.68-.63-3.59-2.81-3.21-4.96,.32-1.9,1.64-3.76,3.62-4.54,3.83-1.51,6.8,.63,8.39,2.7Z"/><path class="cls-3" d="M42.32,89.76c-4.01,1.54-3.13,6.88-7.54,5.85-3.95-.92-2.99-6.14,.32-7.44,3-1.19,6.45,.32,7.23,1.6Z"/></g></g></g></g></g></g></svg>