<?xml version="1.0" encoding="UTF-8"?><svg id="Layer_2" xmlns="http://www.w3.org/2000/svg" viewBox="0 0 111.91 111.91"><defs><style>.cls-1{fill:#fff;}.cls-2{fill:#751d0e;}.cls-3{fill:#994710;}.cls-4{fill:#351601;}.cls-5{fill:none;}.cls-6{fill:#461d14;}.cls-7{fill:#fcfeff;}.cls-8{fill:#cc6a1f;}.cls-9{fill:#c1411a;}.cls-10{fill:#df3629;}</style></defs><g id="Capa_1"><g><rect class="cls-5" width="111.91" height="111.91" rx="12" ry="12"/><g><path class="cls-8" d="M18.8,73.01c1.83,6.84,8.52,11.1,13.53,10.4,5.01-.7,5.93-6.34,5-12.93-.93-6.6-5.74-11.39-10.75-10.67-6.84,.99-9.51,6.78-7.79,13.21Z"/><path class="cls-3" d="M25.07,74.64c.41,2.89,2.81,4.95,5.36,4.59,2.55-.36,4.29-3,3.88-5.89-.41-2.89-2.81-4.95-5.36-4.59-2.55,.36-4.29,3-3.88,5.89Z"/><path class="cls-8" d="M93.34,73.11c-1.81,6.85-8.5,11.12-13.5,10.43-5.01-.69-5.95-6.32-5.03-12.92,.91-6.6,5.71-11.41,10.72-10.7,6.84,.97,9.52,6.75,7.82,13.19Z"/><path class="cls-3" d="M86.94,74.56c-.4,2.89-2.79,4.95-5.34,4.6-2.55-.35-4.3-2.98-3.9-5.88,.4-2.89,2.79-4.95,5.34-4.6,2.55,.35,4.3,2.98,3.9,5.88Z"/><path d="M88.8,49.81c-.11,20.22-13.44,29.25-32.03,29.15-18.59-.1-33.36-9.27-33.26-29.49,.11-20.22,15.95-25.93,32.31-26.13,16.82-.21,33.08,6.25,32.97,26.47Z"/><path class="cls-8" d="M82.62,46.94c-3.17-11.39-13.83-14.63-26.82-14.71h-.14c-12.99,.08-23.66,3.32-26.82,14.71-2.65,9.54,.49,30.14,4.13,36.21,3.07,5.13,14.09,10.52,22.51,10.42,.08,0,.17-.01,.26-.02,.09,0,.18,.02,.26,.02,8.42,.09,19.43-5.29,22.51-10.42,3.64-6.07,6.78-26.67,4.12-36.21Z"/><path class="cls-9" d="M33.72,75.01c-.09,1.31,1.65,2.49,3.89,2.64,2.24,.15,4.12-.79,4.21-2.09,.09-1.31-1.66-2.49-3.89-2.64-2.24-.15-4.12,.79-4.21,2.09Z"/><path class="cls-9" d="M71.03,75.68c.1,1.3,1.99,2.23,4.22,2.07,2.24-.16,3.97-1.35,3.88-2.66-.09-1.3-1.99-2.23-4.22-2.07-2.24,.16-3.97,1.35-3.88,2.66Z"/><path class="cls-2" d="M57.88,73.18c-.15,0-.28-.11-.31-.26-.18-1.08-1.03-1.78-2.17-1.78-1.15,0-2.02,.71-2.17,1.77-.02,.17-.18,.29-.35,.26-.17-.02-.29-.18-.26-.35,.19-1.36,1.34-2.3,2.79-2.3,1.44,0,2.56,.92,2.79,2.29,.03,.17-.09,.33-.26,.36h-.05Z"/><g><path class="cls-7" d="M63.32,62.61c-2.17,3.14-1.9,6.61-.01,7.93,2.85,1.99,9.59,2.58,12.11-.28,2.44-2.77,1.27-7.84-2.7-10.03-3.48-1.92-7.3-.66-9.4,2.38Z"/><path class="cls-2" d="M75.88,61.78c-3.09-4.89-10.53-3.26-12.64,.94,2.17-3.14,6.16-4.08,9.37-2.31,1.99,1.1,3.4,3.04,3.77,5.2,.3,1.72-.1,3.65-1.11,4.8,1.17-.75,2.88-5.05,.61-8.64Z"/><path class="cls-6" d="M64.11,64.71c-.89,2.18,.15,4.66,2.33,5.55,2.18,.89,4.66-.15,5.55-2.33s-.15-4.66-2.33-5.55c-2.18-.89-4.66,.15-5.55,2.33Z"/><path class="cls-1" d="M64.46,64.33c-.25,.6,.04,1.29,.65,1.54,.6,.25,1.29-.04,1.54-.65,.25-.6-.04-1.29-.65-1.54-.6-.25-1.29,.04-1.54,.65Z"/></g><g><path class="cls-7" d="M48.44,62.48c2.11,3.18,1.78,6.64-.13,7.93-2.88,1.94-9.64,2.41-12.11-.5-2.39-2.81-1.13-7.86,2.88-9.98,3.51-1.86,7.31-.53,9.35,2.55Z"/><path class="cls-2" d="M35.9,61.41c3.18-4.83,10.59-3.07,12.62,1.17-2.11-3.18-6.08-4.19-9.33-2.48-2.01,1.06-3.45,2.98-3.87,5.13-.33,1.72,.03,3.66,1.03,4.82-1.15-.77-2.78-5.1-.45-8.65Z"/><path class="cls-6" d="M39.7,64.48c-.89,2.18,.15,4.66,2.33,5.55,2.18,.89,4.66-.15,5.55-2.33,.89-2.18-.15-4.66-2.33-5.55-2.18-.89-4.66,.15-5.55,2.33Z"/><path class="cls-1" d="M40.05,64.11c-.25,.6,.04,1.29,.65,1.54,.6,.25,1.29-.04,1.54-.65,.25-.6-.04-1.29-.65-1.54-.6-.25-1.29,.04-1.54,.65Z"/></g><path class="cls-4" d="M74.64,51.3c-.37,0-.73-.12-1.01-.34-1.78-1.44-5.25-1.8-7.96-.8-.35,.12-.78,.13-1.15-.02-.37-.15-.65-.43-.8-.78-.3-.73,.08-1.55,.85-1.83,3.7-1.38,8.39-.84,11.02,1.29,.31,.25,.49,.59,.52,.97,.03,.38-.1,.74-.36,1.02-.18,.2-.41,.34-.67,.42-.14,.04-.29,.07-.44,.07Z"/><path class="cls-4" d="M34.69,50.45c-.01,.38,.14,.73,.44,1.01,.31,.29,.76,.46,1.22,.45,.41,0,.79-.14,1.09-.38,1.91-1.52,5.61-1.97,8.63-1.06,.35,.11,.72,.1,1.05,0,.47-.13,.86-.44,1.04-.87,.15-.36,.12-.74-.07-1.08-.19-.34-.52-.6-.94-.73-4.15-1.26-9.17-.57-11.95,1.65-.32,.26-.51,.61-.52,.99Z"/><path d="M89.59,47.59c.55-.49,.92-1.13,.93-1.85,.01-.92-.51-1.74-1.33-2.27,1.64-.83,2.76-2.36,2.78-4.12,.03-2-1.36-3.74-3.36-4.52,.69-.65,1.09-1.43,1.1-2.28,.03-2.32-2.87-4.24-6.48-4.29-.28,0-.56,0-.83,.03,.13-.3,.21-.61,.22-.95,.01-1.05-.67-1.98-1.7-2.48-.17-1.07-.85-2.04-1.97-2.62-1.97-1.01-4.58-.4-5.91,1.36-1.07-.7-2.4-1.13-3.85-1.15-1.03-.01-2.01,.18-2.88,.54,1.22-1.21,1.72-2.44,1.17-3.29-.95-1.45-4.59-1.25-8.13,.45-1.21,.58-2.24,1.25-3.05,1.95,.05-1.32-.66-2.58-2-3.27-2.03-1.04-4.72-.37-6.02,1.5-.46,.67-.68,1.4-.68,2.11-.95-.48-2.04-.77-3.22-.78-2.54-.04-4.75,1.18-5.86,2.98-.49-1.05-1.73-1.81-3.18-1.83-1.91-.03-3.47,1.22-3.5,2.79-.01,.79,.37,1.5,.99,2.02-.41,.33-.72,.74-.89,1.2-2.13-.49-4.1-.1-4.61,1.01-.29,.62-.07,1.34,.5,2.02-2.79,.48-4.87,2.22-4.9,4.32,0,.22,.02,.43,.06,.64-1.8-.22-3.53,.34-4.39,1.58-1.21,1.75-.23,4.18,2.19,5.42,.06,.03,.12,.06,.18,.08-.02,.05-.05,.09-.06,.14-.54,1.44-.19,2.95,.78,4.09-.59,.57-.98,1.39-.99,2.32-.02,1.74,1.26,3.17,2.86,3.19,.31,0,.6-.04,.88-.13,.31,1.05,.83,1.74,1.53,1.83,.08-4.14,.76-9.68,4.44-14.35,1.29,.41,2.96,.19,4.45-.81,1.57-1.05,2.44-2.62,2.47-4.02,.7,.4,1.89,.46,3.14,.06,1.31-.43,2.29-1.23,2.57-2.01,1.28,.27,2.85,.33,4.56,.12,2.36-.3,4.37-1.05,5.57-1.96,.86,.94,2.63,1.59,4.71,1.59,1.6,0,3.02-.4,3.99-1,.56,.55,1.32,.89,2.17,.89,.94,0,1.75-.44,2.32-1.1,1,1.59,3.25,3.07,6.1,3.78,.92,.23,1.81,.34,2.66,.38l-.02,.09c0,2.15,2.12,3.88,4.73,3.88,.6,0,1.17-.11,1.7-.28,2.17,2.85,2.88,5.82,3.17,8.22-.25,.8-.26,1.73,.08,2.64,.04,.1,.11,.18,.16,.27,.06,1.17,.12,1.91,.54,1.85,.26-.04,.46-.19,.7-.28,.86,.67,1.91,.96,2.9,.6,1.65-.61,2.41-2.68,1.69-4.64-.25-.67-.67-1.19-1.14-1.63Z"/><g><circle class="cls-2" cx="56.02" cy="82.9" r="6.16"/><ellipse class="cls-10" cx="55.89" cy="86.55" rx="4.45" ry="2.01"/></g></g></g></g></svg>